<?xml version="1.0" encoding="utf-8" standalone="no"?>
<!DOCTYPE svg PUBLIC "-//W3C//DTD SVG 1.1//EN"
  "http://www.w3.org/Graphics/SVG/1.1/DTD/svg11.dtd">
<!-- Created with matplotlib (https://matplotlib.org/) -->
<svg height="433.394062pt" version="1.1" viewBox="0 0 837.272813 433.394062" width="837.272813pt" xmlns="http://www.w3.org/2000/svg" xmlns:xlink="http://www.w3.org/1999/xlink">
 <defs>
  <style type="text/css">
*{stroke-linecap:butt;stroke-linejoin:round;}
  </style>
 </defs>
 <g id="figure_1">
  <g id="patch_1">
   <path d="M 0 433.394062 
L 837.272813 433.394062 
L 837.272813 0 
L 0 0 
z
" style="fill:#ffffff;"/>
  </g>
  <g id="axes_1">
   <g id="patch_2">
    <path d="M 51.378125 395.837812 
L 497.778125 395.837812 
L 497.778125 69.677812 
L 51.378125 69.677812 
z
" style="fill:#ffffff;"/>
   </g>
   <g id="matplotlib.axis_1">
    <g id="xtick_1">
     <g id="line2d_1">
      <path clip-path="url(#p767e8b9774)" d="M 207.692676 395.837812 
L 207.692676 69.677812 
" style="fill:none;stroke:#b0b0b0;stroke-linecap:square;stroke-width:0.8;"/>
     </g>
     <g id="line2d_2">
      <defs>
       <path d="M 0 0 
L 0 3.5 
" id="m8e60ec877a" style="stroke:#000000;stroke-width:0.8;"/>
      </defs>
      <g>
       <use style="stroke:#000000;stroke-width:0.8;" x="207.692676" xlink:href="#m8e60ec877a" y="395.837812"/>
      </g>
     </g>
     <g id="text_1">
      <!-- $\mathdefault{10^{3}}$ -->
      <defs>
       <path d="M 12.40625 8.296875 
L 28.515625 8.296875 
L 28.515625 63.921875 
L 10.984375 60.40625 
L 10.984375 69.390625 
L 28.421875 72.90625 
L 38.28125 72.90625 
L 38.28125 8.296875 
L 54.390625 8.296875 
L 54.390625 0 
L 12.40625 0 
z
" id="DejaVuSans-49"/>
       <path d="M 31.78125 66.40625 
Q 24.171875 66.40625 20.328125 58.90625 
Q 16.5 51.421875 16.5 36.375 
Q 16.5 21.390625 20.328125 13.890625 
Q 24.171875 6.390625 31.78125 6.390625 
Q 39.453125 6.390625 43.28125 13.890625 
Q 47.125 21.390625 47.125 36.375 
Q 47.125 51.421875 43.28125 58.90625 
Q 39.453125 66.40625 31.78125 66.40625 
z
M 31.78125 74.21875 
Q 44.046875 74.21875 50.515625 64.515625 
Q 56.984375 54.828125 56.984375 36.375 
Q 56.984375 17.96875 50.515625 8.265625 
Q 44.046875 -1.421875 31.78125 -1.421875 
Q 19.53125 -1.421875 13.0625 8.265625 
Q 6.59375 17.96875 6.59375 36.375 
Q 6.59375 54.828125 13.0625 64.515625 
Q 19.53125 74.21875 31.78125 74.21875 
z
" id="DejaVuSans-48"/>
       <path d="M 40.578125 39.3125 
Q 47.65625 37.796875 51.625 33 
Q 55.609375 28.21875 55.609375 21.1875 
Q 55.609375 10.40625 48.1875 4.484375 
Q 40.765625 -1.421875 27.09375 -1.421875 
Q 22.515625 -1.421875 17.65625 -0.515625 
Q 12.796875 0.390625 7.625 2.203125 
L 7.625 11.71875 
Q 11.71875 9.328125 16.59375 8.109375 
Q 21.484375 6.890625 26.8125 6.890625 
Q 36.078125 6.890625 40.9375 10.546875 
Q 45.796875 14.203125 45.796875 21.1875 
Q 45.796875 27.640625 41.28125 31.265625 
Q 36.765625 34.90625 28.71875 34.90625 
L 20.21875 34.90625 
L 20.21875 43.015625 
L 29.109375 43.015625 
Q 36.375 43.015625 40.234375 45.921875 
Q 44.09375 48.828125 44.09375 54.296875 
Q 44.09375 59.90625 40.109375 62.90625 
Q 36.140625 65.921875 28.71875 65.921875 
Q 24.65625 65.921875 20.015625 65.03125 
Q 15.375 64.15625 9.8125 62.3125 
L 9.8125 71.09375 
Q 15.4375 72.65625 20.34375 73.4375 
Q 25.25 74.21875 29.59375 74.21875 
Q 40.828125 74.21875 47.359375 69.109375 
Q 53.90625 64.015625 53.90625 55.328125 
Q 53.90625 49.265625 50.4375 45.09375 
Q 46.96875 40.921875 40.578125 39.3125 
z
" id="DejaVuSans-51"/>
      </defs>
      <g transform="translate(198.892676 410.43625)scale(0.1 -0.1)">
       <use transform="translate(0 0.765625)" xlink:href="#DejaVuSans-49"/>
       <use transform="translate(63.623047 0.765625)" xlink:href="#DejaVuSans-48"/>
       <use transform="translate(128.203125 39.046875)scale(0.7)" xlink:href="#DejaVuSans-51"/>
      </g>
     </g>
    </g>
    <g id="xtick_2">
     <g id="line2d_3">
      <path clip-path="url(#p767e8b9774)" d="M 390.341554 395.837812 
L 390.341554 69.677812 
" style="fill:none;stroke:#b0b0b0;stroke-linecap:square;stroke-width:0.8;"/>
     </g>
     <g id="line2d_4">
      <g>
       <use style="stroke:#000000;stroke-width:0.8;" x="390.341554" xlink:href="#m8e60ec877a" y="395.837812"/>
      </g>
     </g>
     <g id="text_2">
      <!-- $\mathdefault{10^{4}}$ -->
      <defs>
       <path d="M 37.796875 64.3125 
L 12.890625 25.390625 
L 37.796875 25.390625 
z
M 35.203125 72.90625 
L 47.609375 72.90625 
L 47.609375 25.390625 
L 58.015625 25.390625 
L 58.015625 17.1875 
L 47.609375 17.1875 
L 47.609375 0 
L 37.796875 0 
L 37.796875 17.1875 
L 4.890625 17.1875 
L 4.890625 26.703125 
z
" id="DejaVuSans-52"/>
      </defs>
      <g transform="translate(381.541554 410.43625)scale(0.1 -0.1)">
       <use transform="translate(0 0.684375)" xlink:href="#DejaVuSans-49"/>
       <use transform="translate(63.623047 0.684375)" xlink:href="#DejaVuSans-48"/>
       <use transform="translate(128.203125 38.965625)scale(0.7)" xlink:href="#DejaVuSans-52"/>
      </g>
     </g>
    </g>
    <g id="xtick_3">
     <g id="line2d_5">
      <defs>
       <path d="M 0 0 
L 0 2 
" id="mcb5ab006f8" style="stroke:#000000;stroke-width:0.6;"/>
      </defs>
      <g>
       <use style="stroke:#000000;stroke-width:0.6;" x="80.026588" xlink:href="#mcb5ab006f8" y="395.837812"/>
      </g>
     </g>
    </g>
    <g id="xtick_4">
     <g id="line2d_6">
      <g>
       <use style="stroke:#000000;stroke-width:0.6;" x="112.189459" xlink:href="#mcb5ab006f8" y="395.837812"/>
      </g>
     </g>
    </g>
    <g id="xtick_5">
     <g id="line2d_7">
      <g>
       <use style="stroke:#000000;stroke-width:0.6;" x="135.009379" xlink:href="#mcb5ab006f8" y="395.837812"/>
      </g>
     </g>
    </g>
    <g id="xtick_6">
     <g id="line2d_8">
      <g>
       <use style="stroke:#000000;stroke-width:0.6;" x="152.709885" xlink:href="#mcb5ab006f8" y="395.837812"/>
      </g>
     </g>
    </g>
    <g id="xtick_7">
     <g id="line2d_9">
      <g>
       <use style="stroke:#000000;stroke-width:0.6;" x="167.17225" xlink:href="#mcb5ab006f8" y="395.837812"/>
      </g>
     </g>
    </g>
    <g id="xtick_8">
     <g id="line2d_10">
      <g>
       <use style="stroke:#000000;stroke-width:0.6;" x="179.400006" xlink:href="#mcb5ab006f8" y="395.837812"/>
      </g>
     </g>
    </g>
    <g id="xtick_9">
     <g id="line2d_11">
      <g>
       <use style="stroke:#000000;stroke-width:0.6;" x="189.99217" xlink:href="#mcb5ab006f8" y="395.837812"/>
      </g>
     </g>
    </g>
    <g id="xtick_10">
     <g id="line2d_12">
      <g>
       <use style="stroke:#000000;stroke-width:0.6;" x="199.335121" xlink:href="#mcb5ab006f8" y="395.837812"/>
      </g>
     </g>
    </g>
    <g id="xtick_11">
     <g id="line2d_13">
      <g>
       <use style="stroke:#000000;stroke-width:0.6;" x="262.675467" xlink:href="#mcb5ab006f8" y="395.837812"/>
      </g>
     </g>
    </g>
    <g id="xtick_12">
     <g id="line2d_14">
      <g>
       <use style="stroke:#000000;stroke-width:0.6;" x="294.838338" xlink:href="#mcb5ab006f8" y="395.837812"/>
      </g>
     </g>
    </g>
    <g id="xtick_13">
     <g id="line2d_15">
      <g>
       <use style="stroke:#000000;stroke-width:0.6;" x="317.658258" xlink:href="#mcb5ab006f8" y="395.837812"/>
      </g>
     </g>
    </g>
    <g id="xtick_14">
     <g id="line2d_16">
      <g>
       <use style="stroke:#000000;stroke-width:0.6;" x="335.358763" xlink:href="#mcb5ab006f8" y="395.837812"/>
      </g>
     </g>
    </g>
    <g id="xtick_15">
     <g id="line2d_17">
      <g>
       <use style="stroke:#000000;stroke-width:0.6;" x="349.821129" xlink:href="#mcb5ab006f8" y="395.837812"/>
      </g>
     </g>
    </g>
    <g id="xtick_16">
     <g id="line2d_18">
      <g>
       <use style="stroke:#000000;stroke-width:0.6;" x="362.048885" xlink:href="#mcb5ab006f8" y="395.837812"/>
      </g>
     </g>
    </g>
    <g id="xtick_17">
     <g id="line2d_19">
      <g>
       <use style="stroke:#000000;stroke-width:0.6;" x="372.641049" xlink:href="#mcb5ab006f8" y="395.837812"/>
      </g>
     </g>
    </g>
    <g id="xtick_18">
     <g id="line2d_20">
      <g>
       <use style="stroke:#000000;stroke-width:0.6;" x="381.984" xlink:href="#mcb5ab006f8" y="395.837812"/>
      </g>
     </g>
    </g>
    <g id="xtick_19">
     <g id="line2d_21">
      <g>
       <use style="stroke:#000000;stroke-width:0.6;" x="445.324345" xlink:href="#mcb5ab006f8" y="395.837812"/>
      </g>
     </g>
    </g>
    <g id="xtick_20">
     <g id="line2d_22">
      <g>
       <use style="stroke:#000000;stroke-width:0.6;" x="477.487216" xlink:href="#mcb5ab006f8" y="395.837812"/>
      </g>
     </g>
    </g>
    <g id="text_3">
     <!-- Time in seconds -->
     <defs>
      <path d="M -0.296875 72.90625 
L 61.375 72.90625 
L 61.375 64.59375 
L 35.5 64.59375 
L 35.5 0 
L 25.59375 0 
L 25.59375 64.59375 
L -0.296875 64.59375 
z
" id="DejaVuSans-84"/>
      <path d="M 9.421875 54.6875 
L 18.40625 54.6875 
L 18.40625 0 
L 9.421875 0 
z
M 9.421875 75.984375 
L 18.40625 75.984375 
L 18.40625 64.59375 
L 9.421875 64.59375 
z
" id="DejaVuSans-105"/>
      <path d="M 52 44.1875 
Q 55.375 50.25 60.0625 53.125 
Q 64.75 56 71.09375 56 
Q 79.640625 56 84.28125 50.015625 
Q 88.921875 44.046875 88.921875 33.015625 
L 88.921875 0 
L 79.890625 0 
L 79.890625 32.71875 
Q 79.890625 40.578125 77.09375 44.375 
Q 74.3125 48.1875 68.609375 48.1875 
Q 61.625 48.1875 57.5625 43.546875 
Q 53.515625 38.921875 53.515625 30.90625 
L 53.515625 0 
L 44.484375 0 
L 44.484375 32.71875 
Q 44.484375 40.625 41.703125 44.40625 
Q 38.921875 48.1875 33.109375 48.1875 
Q 26.21875 48.1875 22.15625 43.53125 
Q 18.109375 38.875 18.109375 30.90625 
L 18.109375 0 
L 9.078125 0 
L 9.078125 54.6875 
L 18.109375 54.6875 
L 18.109375 46.1875 
Q 21.1875 51.21875 25.484375 53.609375 
Q 29.78125 56 35.6875 56 
Q 41.65625 56 45.828125 52.96875 
Q 50 49.953125 52 44.1875 
z
" id="DejaVuSans-109"/>
      <path d="M 56.203125 29.59375 
L 56.203125 25.203125 
L 14.890625 25.203125 
Q 15.484375 15.921875 20.484375 11.0625 
Q 25.484375 6.203125 34.421875 6.203125 
Q 39.59375 6.203125 44.453125 7.46875 
Q 49.3125 8.734375 54.109375 11.28125 
L 54.109375 2.78125 
Q 49.265625 0.734375 44.1875 -0.34375 
Q 39.109375 -1.421875 33.890625 -1.421875 
Q 20.796875 -1.421875 13.15625 6.1875 
Q 5.515625 13.8125 5.515625 26.8125 
Q 5.515625 40.234375 12.765625 48.109375 
Q 20.015625 56 32.328125 56 
Q 43.359375 56 49.78125 48.890625 
Q 56.203125 41.796875 56.203125 29.59375 
z
M 47.21875 32.234375 
Q 47.125 39.59375 43.09375 43.984375 
Q 39.0625 48.390625 32.421875 48.390625 
Q 24.90625 48.390625 20.390625 44.140625 
Q 15.875 39.890625 15.1875 32.171875 
z
" id="DejaVuSans-101"/>
      <path id="DejaVuSans-32"/>
      <path d="M 54.890625 33.015625 
L 54.890625 0 
L 45.90625 0 
L 45.90625 32.71875 
Q 45.90625 40.484375 42.875 44.328125 
Q 39.84375 48.1875 33.796875 48.1875 
Q 26.515625 48.1875 22.3125 43.546875 
Q 18.109375 38.921875 18.109375 30.90625 
L 18.109375 0 
L 9.078125 0 
L 9.078125 54.6875 
L 18.109375 54.6875 
L 18.109375 46.1875 
Q 21.34375 51.125 25.703125 53.5625 
Q 30.078125 56 35.796875 56 
Q 45.21875 56 50.046875 50.171875 
Q 54.890625 44.34375 54.890625 33.015625 
z
" id="DejaVuSans-110"/>
      <path d="M 44.28125 53.078125 
L 44.28125 44.578125 
Q 40.484375 46.53125 36.375 47.5 
Q 32.28125 48.484375 27.875 48.484375 
Q 21.1875 48.484375 17.84375 46.4375 
Q 14.5 44.390625 14.5 40.28125 
Q 14.5 37.15625 16.890625 35.375 
Q 19.28125 33.59375 26.515625 31.984375 
L 29.59375 31.296875 
Q 39.15625 29.25 43.1875 25.515625 
Q 47.21875 21.78125 47.21875 15.09375 
Q 47.21875 7.46875 41.1875 3.015625 
Q 35.15625 -1.421875 24.609375 -1.421875 
Q 20.21875 -1.421875 15.453125 -0.5625 
Q 10.6875 0.296875 5.421875 2 
L 5.421875 11.28125 
Q 10.40625 8.6875 15.234375 7.390625 
Q 20.0625 6.109375 24.8125 6.109375 
Q 31.15625 6.109375 34.5625 8.28125 
Q 37.984375 10.453125 37.984375 14.40625 
Q 37.984375 18.0625 35.515625 20.015625 
Q 33.0625 21.96875 24.703125 23.78125 
L 21.578125 24.515625 
Q 13.234375 26.265625 9.515625 29.90625 
Q 5.8125 33.546875 5.8125 39.890625 
Q 5.8125 47.609375 11.28125 51.796875 
Q 16.75 56 26.8125 56 
Q 31.78125 56 36.171875 55.265625 
Q 40.578125 54.546875 44.28125 53.078125 
z
" id="DejaVuSans-115"/>
      <path d="M 48.78125 52.59375 
L 48.78125 44.1875 
Q 44.96875 46.296875 41.140625 47.34375 
Q 37.3125 48.390625 33.40625 48.390625 
Q 24.65625 48.390625 19.8125 42.84375 
Q 14.984375 37.3125 14.984375 27.296875 
Q 14.984375 17.28125 19.8125 11.734375 
Q 24.65625 6.203125 33.40625 6.203125 
Q 37.3125 6.203125 41.140625 7.25 
Q 44.96875 8.296875 48.78125 10.40625 
L 48.78125 2.09375 
Q 45.015625 0.34375 40.984375 -0.53125 
Q 36.96875 -1.421875 32.421875 -1.421875 
Q 20.0625 -1.421875 12.78125 6.34375 
Q 5.515625 14.109375 5.515625 27.296875 
Q 5.515625 40.671875 12.859375 48.328125 
Q 20.21875 56 33.015625 56 
Q 37.15625 56 41.109375 55.140625 
Q 45.0625 54.296875 48.78125 52.59375 
z
" id="DejaVuSans-99"/>
      <path d="M 30.609375 48.390625 
Q 23.390625 48.390625 19.1875 42.75 
Q 14.984375 37.109375 14.984375 27.296875 
Q 14.984375 17.484375 19.15625 11.84375 
Q 23.34375 6.203125 30.609375 6.203125 
Q 37.796875 6.203125 41.984375 11.859375 
Q 46.1875 17.53125 46.1875 27.296875 
Q 46.1875 37.015625 41.984375 42.703125 
Q 37.796875 48.390625 30.609375 48.390625 
z
M 30.609375 56 
Q 42.328125 56 49.015625 48.375 
Q 55.71875 40.765625 55.71875 27.296875 
Q 55.71875 13.875 49.015625 6.21875 
Q 42.328125 -1.421875 30.609375 -1.421875 
Q 18.84375 -1.421875 12.171875 6.21875 
Q 5.515625 13.875 5.515625 27.296875 
Q 5.515625 40.765625 12.171875 48.375 
Q 18.84375 56 30.609375 56 
z
" id="DejaVuSans-111"/>
      <path d="M 45.40625 46.390625 
L 45.40625 75.984375 
L 54.390625 75.984375 
L 54.390625 0 
L 45.40625 0 
L 45.40625 8.203125 
Q 42.578125 3.328125 38.25 0.953125 
Q 33.9375 -1.421875 27.875 -1.421875 
Q 17.96875 -1.421875 11.734375 6.484375 
Q 5.515625 14.40625 5.515625 27.296875 
Q 5.515625 40.1875 11.734375 48.09375 
Q 17.96875 56 27.875 56 
Q 33.9375 56 38.25 53.625 
Q 42.578125 51.265625 45.40625 46.390625 
z
M 14.796875 27.296875 
Q 14.796875 17.390625 18.875 11.75 
Q 22.953125 6.109375 30.078125 6.109375 
Q 37.203125 6.109375 41.296875 11.75 
Q 45.40625 17.390625 45.40625 27.296875 
Q 45.40625 37.203125 41.296875 42.84375 
Q 37.203125 48.484375 30.078125 48.484375 
Q 22.953125 48.484375 18.875 42.84375 
Q 14.796875 37.203125 14.796875 27.296875 
z
" id="DejaVuSans-100"/>
     </defs>
     <g transform="translate(234.017188 424.114375)scale(0.1 -0.1)">
      <use xlink:href="#DejaVuSans-84"/>
      <use x="61.037109" xlink:href="#DejaVuSans-105"/>
      <use x="88.820312" xlink:href="#DejaVuSans-109"/>
      <use x="186.232422" xlink:href="#DejaVuSans-101"/>
      <use x="247.755859" xlink:href="#DejaVuSans-32"/>
      <use x="279.542969" xlink:href="#DejaVuSans-105"/>
      <use x="307.326172" xlink:href="#DejaVuSans-110"/>
      <use x="370.705078" xlink:href="#DejaVuSans-32"/>
      <use x="402.492188" xlink:href="#DejaVuSans-115"/>
      <use x="454.591797" xlink:href="#DejaVuSans-101"/>
      <use x="516.115234" xlink:href="#DejaVuSans-99"/>
      <use x="571.095703" xlink:href="#DejaVuSans-111"/>
      <use x="632.277344" xlink:href="#DejaVuSans-110"/>
      <use x="695.65625" xlink:href="#DejaVuSans-100"/>
      <use x="759.132812" xlink:href="#DejaVuSans-115"/>
     </g>
    </g>
   </g>
   <g id="matplotlib.axis_2">
    <g id="ytick_1">
     <g id="line2d_23">
      <path clip-path="url(#p767e8b9774)" d="M 51.378125 377.621978 
L 497.778125 377.621978 
" style="fill:none;stroke:#b0b0b0;stroke-linecap:square;stroke-width:0.8;"/>
     </g>
     <g id="line2d_24">
      <defs>
       <path d="M 0 0 
L -3.5 0 
" id="md958b1775a" style="stroke:#000000;stroke-width:0.8;"/>
      </defs>
      <g>
       <use style="stroke:#000000;stroke-width:0.8;" x="51.378125" xlink:href="#md958b1775a" y="377.621978"/>
      </g>
     </g>
     <g id="text_4">
      <!-- $\mathdefault{10^{-1}}$ -->
      <defs>
       <path d="M 10.59375 35.5 
L 73.1875 35.5 
L 73.1875 27.203125 
L 10.59375 27.203125 
z
" id="DejaVuSans-8722"/>
      </defs>
      <g transform="translate(20.878125 381.421197)scale(0.1 -0.1)">
       <use transform="translate(0 0.684375)" xlink:href="#DejaVuSans-49"/>
       <use transform="translate(63.623047 0.684375)" xlink:href="#DejaVuSans-48"/>
       <use transform="translate(128.203125 38.965625)scale(0.7)" xlink:href="#DejaVuSans-8722"/>
       <use transform="translate(186.855469 38.965625)scale(0.7)" xlink:href="#DejaVuSans-49"/>
      </g>
     </g>
    </g>
    <g id="ytick_2">
     <g id="line2d_25">
      <path clip-path="url(#p767e8b9774)" d="M 51.378125 290.384458 
L 497.778125 290.384458 
" style="fill:none;stroke:#b0b0b0;stroke-linecap:square;stroke-width:0.8;"/>
     </g>
     <g id="line2d_26">
      <g>
       <use style="stroke:#000000;stroke-width:0.8;" x="51.378125" xlink:href="#md958b1775a" y="290.384458"/>
      </g>
     </g>
     <g id="text_5">
      <!-- $\mathdefault{10^{0}}$ -->
      <g transform="translate(26.778125 294.183677)scale(0.1 -0.1)">
       <use transform="translate(0 0.765625)" xlink:href="#DejaVuSans-49"/>
       <use transform="translate(63.623047 0.765625)" xlink:href="#DejaVuSans-48"/>
       <use transform="translate(128.203125 39.046875)scale(0.7)" xlink:href="#DejaVuSans-48"/>
      </g>
     </g>
    </g>
    <g id="ytick_3">
     <g id="line2d_27">
      <path clip-path="url(#p767e8b9774)" d="M 51.378125 203.146939 
L 497.778125 203.146939 
" style="fill:none;stroke:#b0b0b0;stroke-linecap:square;stroke-width:0.8;"/>
     </g>
     <g id="line2d_28">
      <g>
       <use style="stroke:#000000;stroke-width:0.8;" x="51.378125" xlink:href="#md958b1775a" y="203.146939"/>
      </g>
     </g>
     <g id="text_6">
      <!-- $\mathdefault{10^{1}}$ -->
      <g transform="translate(26.778125 206.946158)scale(0.1 -0.1)">
       <use transform="translate(0 0.684375)" xlink:href="#DejaVuSans-49"/>
       <use transform="translate(63.623047 0.684375)" xlink:href="#DejaVuSans-48"/>
       <use transform="translate(128.203125 38.965625)scale(0.7)" xlink:href="#DejaVuSans-49"/>
      </g>
     </g>
    </g>
    <g id="ytick_4">
     <g id="line2d_29">
      <path clip-path="url(#p767e8b9774)" d="M 51.378125 115.909419 
L 497.778125 115.909419 
" style="fill:none;stroke:#b0b0b0;stroke-linecap:square;stroke-width:0.8;"/>
     </g>
     <g id="line2d_30">
      <g>
       <use style="stroke:#000000;stroke-width:0.8;" x="51.378125" xlink:href="#md958b1775a" y="115.909419"/>
      </g>
     </g>
     <g id="text_7">
      <!-- $\mathdefault{10^{2}}$ -->
      <defs>
       <path d="M 19.1875 8.296875 
L 53.609375 8.296875 
L 53.609375 0 
L 7.328125 0 
L 7.328125 8.296875 
Q 12.9375 14.109375 22.625 23.890625 
Q 32.328125 33.6875 34.8125 36.53125 
Q 39.546875 41.84375 41.421875 45.53125 
Q 43.3125 49.21875 43.3125 52.78125 
Q 43.3125 58.59375 39.234375 62.25 
Q 35.15625 65.921875 28.609375 65.921875 
Q 23.96875 65.921875 18.8125 64.3125 
Q 13.671875 62.703125 7.8125 59.421875 
L 7.8125 69.390625 
Q 13.765625 71.78125 18.9375 73 
Q 24.125 74.21875 28.421875 74.21875 
Q 39.75 74.21875 46.484375 68.546875 
Q 53.21875 62.890625 53.21875 53.421875 
Q 53.21875 48.921875 51.53125 44.890625 
Q 49.859375 40.875 45.40625 35.40625 
Q 44.1875 33.984375 37.640625 27.21875 
Q 31.109375 20.453125 19.1875 8.296875 
z
" id="DejaVuSans-50"/>
      </defs>
      <g transform="translate(26.778125 119.708638)scale(0.1 -0.1)">
       <use transform="translate(0 0.765625)" xlink:href="#DejaVuSans-49"/>
       <use transform="translate(63.623047 0.765625)" xlink:href="#DejaVuSans-48"/>
       <use transform="translate(128.203125 39.046875)scale(0.7)" xlink:href="#DejaVuSans-50"/>
      </g>
     </g>
    </g>
    <g id="ytick_5">
     <g id="line2d_31">
      <defs>
       <path d="M 0 0 
L -2 0 
" id="m195b357db5" style="stroke:#000000;stroke-width:0.6;"/>
      </defs>
      <g>
       <use style="stroke:#000000;stroke-width:0.6;" x="51.378125" xlink:href="#m195b357db5" y="391.135241"/>
      </g>
     </g>
    </g>
    <g id="ytick_6">
     <g id="line2d_32">
      <g>
       <use style="stroke:#000000;stroke-width:0.6;" x="51.378125" xlink:href="#m195b357db5" y="386.076167"/>
      </g>
     </g>
    </g>
    <g id="ytick_7">
     <g id="line2d_33">
      <g>
       <use style="stroke:#000000;stroke-width:0.6;" x="51.378125" xlink:href="#m195b357db5" y="381.613748"/>
      </g>
     </g>
    </g>
    <g id="ytick_8">
     <g id="line2d_34">
      <g>
       <use style="stroke:#000000;stroke-width:0.6;" x="51.378125" xlink:href="#m195b357db5" y="351.360868"/>
      </g>
     </g>
    </g>
    <g id="ytick_9">
     <g id="line2d_35">
      <g>
       <use style="stroke:#000000;stroke-width:0.6;" x="51.378125" xlink:href="#m195b357db5" y="335.999103"/>
      </g>
     </g>
    </g>
    <g id="ytick_10">
     <g id="line2d_36">
      <g>
       <use style="stroke:#000000;stroke-width:0.6;" x="51.378125" xlink:href="#m195b357db5" y="325.099758"/>
      </g>
     </g>
    </g>
    <g id="ytick_11">
     <g id="line2d_37">
      <g>
       <use style="stroke:#000000;stroke-width:0.6;" x="51.378125" xlink:href="#m195b357db5" y="316.645569"/>
      </g>
     </g>
    </g>
    <g id="ytick_12">
     <g id="line2d_38">
      <g>
       <use style="stroke:#000000;stroke-width:0.6;" x="51.378125" xlink:href="#m195b357db5" y="309.737993"/>
      </g>
     </g>
    </g>
    <g id="ytick_13">
     <g id="line2d_39">
      <g>
       <use style="stroke:#000000;stroke-width:0.6;" x="51.378125" xlink:href="#m195b357db5" y="303.897721"/>
      </g>
     </g>
    </g>
    <g id="ytick_14">
     <g id="line2d_40">
      <g>
       <use style="stroke:#000000;stroke-width:0.6;" x="51.378125" xlink:href="#m195b357db5" y="298.838648"/>
      </g>
     </g>
    </g>
    <g id="ytick_15">
     <g id="line2d_41">
      <g>
       <use style="stroke:#000000;stroke-width:0.6;" x="51.378125" xlink:href="#m195b357db5" y="294.376228"/>
      </g>
     </g>
    </g>
    <g id="ytick_16">
     <g id="line2d_42">
      <g>
       <use style="stroke:#000000;stroke-width:0.6;" x="51.378125" xlink:href="#m195b357db5" y="264.123348"/>
      </g>
     </g>
    </g>
    <g id="ytick_17">
     <g id="line2d_43">
      <g>
       <use style="stroke:#000000;stroke-width:0.6;" x="51.378125" xlink:href="#m195b357db5" y="248.761584"/>
      </g>
     </g>
    </g>
    <g id="ytick_18">
     <g id="line2d_44">
      <g>
       <use style="stroke:#000000;stroke-width:0.6;" x="51.378125" xlink:href="#m195b357db5" y="237.862238"/>
      </g>
     </g>
    </g>
    <g id="ytick_19">
     <g id="line2d_45">
      <g>
       <use style="stroke:#000000;stroke-width:0.6;" x="51.378125" xlink:href="#m195b357db5" y="229.408049"/>
      </g>
     </g>
    </g>
    <g id="ytick_20">
     <g id="line2d_46">
      <g>
       <use style="stroke:#000000;stroke-width:0.6;" x="51.378125" xlink:href="#m195b357db5" y="222.500473"/>
      </g>
     </g>
    </g>
    <g id="ytick_21">
     <g id="line2d_47">
      <g>
       <use style="stroke:#000000;stroke-width:0.6;" x="51.378125" xlink:href="#m195b357db5" y="216.660202"/>
      </g>
     </g>
    </g>
    <g id="ytick_22">
     <g id="line2d_48">
      <g>
       <use style="stroke:#000000;stroke-width:0.6;" x="51.378125" xlink:href="#m195b357db5" y="211.601128"/>
      </g>
     </g>
    </g>
    <g id="ytick_23">
     <g id="line2d_49">
      <g>
       <use style="stroke:#000000;stroke-width:0.6;" x="51.378125" xlink:href="#m195b357db5" y="207.138709"/>
      </g>
     </g>
    </g>
    <g id="ytick_24">
     <g id="line2d_50">
      <g>
       <use style="stroke:#000000;stroke-width:0.6;" x="51.378125" xlink:href="#m195b357db5" y="176.885829"/>
      </g>
     </g>
    </g>
    <g id="ytick_25">
     <g id="line2d_51">
      <g>
       <use style="stroke:#000000;stroke-width:0.6;" x="51.378125" xlink:href="#m195b357db5" y="161.524064"/>
      </g>
     </g>
    </g>
    <g id="ytick_26">
     <g id="line2d_52">
      <g>
       <use style="stroke:#000000;stroke-width:0.6;" x="51.378125" xlink:href="#m195b357db5" y="150.624719"/>
      </g>
     </g>
    </g>
    <g id="ytick_27">
     <g id="line2d_53">
      <g>
       <use style="stroke:#000000;stroke-width:0.6;" x="51.378125" xlink:href="#m195b357db5" y="142.170529"/>
      </g>
     </g>
    </g>
    <g id="ytick_28">
     <g id="line2d_54">
      <g>
       <use style="stroke:#000000;stroke-width:0.6;" x="51.378125" xlink:href="#m195b357db5" y="135.262954"/>
      </g>
     </g>
    </g>
    <g id="ytick_29">
     <g id="line2d_55">
      <g>
       <use style="stroke:#000000;stroke-width:0.6;" x="51.378125" xlink:href="#m195b357db5" y="129.422682"/>
      </g>
     </g>
    </g>
    <g id="ytick_30">
     <g id="line2d_56">
      <g>
       <use style="stroke:#000000;stroke-width:0.6;" x="51.378125" xlink:href="#m195b357db5" y="124.363608"/>
      </g>
     </g>
    </g>
    <g id="ytick_31">
     <g id="line2d_57">
      <g>
       <use style="stroke:#000000;stroke-width:0.6;" x="51.378125" xlink:href="#m195b357db5" y="119.901189"/>
      </g>
     </g>
    </g>
    <g id="ytick_32">
     <g id="line2d_58">
      <g>
       <use style="stroke:#000000;stroke-width:0.6;" x="51.378125" xlink:href="#m195b357db5" y="89.648309"/>
      </g>
     </g>
    </g>
    <g id="ytick_33">
     <g id="line2d_59">
      <g>
       <use style="stroke:#000000;stroke-width:0.6;" x="51.378125" xlink:href="#m195b357db5" y="74.286544"/>
      </g>
     </g>
    </g>
    <g id="text_8">
     <!-- Drawdown in meters -->
     <defs>
      <path d="M 19.671875 64.796875 
L 19.671875 8.109375 
L 31.59375 8.109375 
Q 46.6875 8.109375 53.6875 14.9375 
Q 60.6875 21.78125 60.6875 36.53125 
Q 60.6875 51.171875 53.6875 57.984375 
Q 46.6875 64.796875 31.59375 64.796875 
z
M 9.8125 72.90625 
L 30.078125 72.90625 
Q 51.265625 72.90625 61.171875 64.09375 
Q 71.09375 55.28125 71.09375 36.53125 
Q 71.09375 17.671875 61.125 8.828125 
Q 51.171875 0 30.078125 0 
L 9.8125 0 
z
" id="DejaVuSans-68"/>
      <path d="M 41.109375 46.296875 
Q 39.59375 47.171875 37.8125 47.578125 
Q 36.03125 48 33.890625 48 
Q 26.265625 48 22.1875 43.046875 
Q 18.109375 38.09375 18.109375 28.8125 
L 18.109375 0 
L 9.078125 0 
L 9.078125 54.6875 
L 18.109375 54.6875 
L 18.109375 46.1875 
Q 20.953125 51.171875 25.484375 53.578125 
Q 30.03125 56 36.53125 56 
Q 37.453125 56 38.578125 55.875 
Q 39.703125 55.765625 41.0625 55.515625 
z
" id="DejaVuSans-114"/>
      <path d="M 34.28125 27.484375 
Q 23.390625 27.484375 19.1875 25 
Q 14.984375 22.515625 14.984375 16.5 
Q 14.984375 11.71875 18.140625 8.90625 
Q 21.296875 6.109375 26.703125 6.109375 
Q 34.1875 6.109375 38.703125 11.40625 
Q 43.21875 16.703125 43.21875 25.484375 
L 43.21875 27.484375 
z
M 52.203125 31.203125 
L 52.203125 0 
L 43.21875 0 
L 43.21875 8.296875 
Q 40.140625 3.328125 35.546875 0.953125 
Q 30.953125 -1.421875 24.3125 -1.421875 
Q 15.921875 -1.421875 10.953125 3.296875 
Q 6 8.015625 6 15.921875 
Q 6 25.140625 12.171875 29.828125 
Q 18.359375 34.515625 30.609375 34.515625 
L 43.21875 34.515625 
L 43.21875 35.40625 
Q 43.21875 41.609375 39.140625 45 
Q 35.0625 48.390625 27.6875 48.390625 
Q 23 48.390625 18.546875 47.265625 
Q 14.109375 46.140625 10.015625 43.890625 
L 10.015625 52.203125 
Q 14.9375 54.109375 19.578125 55.046875 
Q 24.21875 56 28.609375 56 
Q 40.484375 56 46.34375 49.84375 
Q 52.203125 43.703125 52.203125 31.203125 
z
" id="DejaVuSans-97"/>
      <path d="M 4.203125 54.6875 
L 13.1875 54.6875 
L 24.421875 12.015625 
L 35.59375 54.6875 
L 46.1875 54.6875 
L 57.421875 12.015625 
L 68.609375 54.6875 
L 77.59375 54.6875 
L 63.28125 0 
L 52.6875 0 
L 40.921875 44.828125 
L 29.109375 0 
L 18.5 0 
z
" id="DejaVuSans-119"/>
      <path d="M 18.3125 70.21875 
L 18.3125 54.6875 
L 36.8125 54.6875 
L 36.8125 47.703125 
L 18.3125 47.703125 
L 18.3125 18.015625 
Q 18.3125 11.328125 20.140625 9.421875 
Q 21.96875 7.515625 27.59375 7.515625 
L 36.8125 7.515625 
L 36.8125 0 
L 27.59375 0 
Q 17.1875 0 13.234375 3.875 
Q 9.28125 7.765625 9.28125 18.015625 
L 9.28125 47.703125 
L 2.6875 47.703125 
L 2.6875 54.6875 
L 9.28125 54.6875 
L 9.28125 70.21875 
z
" id="DejaVuSans-116"/>
     </defs>
     <g transform="translate(14.798438 284.6875)rotate(-90)scale(0.1 -0.1)">
      <use xlink:href="#DejaVuSans-68"/>
      <use x="77.001953" xlink:href="#DejaVuSans-114"/>
      <use x="118.115234" xlink:href="#DejaVuSans-97"/>
      <use x="179.394531" xlink:href="#DejaVuSans-119"/>
      <use x="261.181641" xlink:href="#DejaVuSans-100"/>
      <use x="324.658203" xlink:href="#DejaVuSans-111"/>
      <use x="385.839844" xlink:href="#DejaVuSans-119"/>
      <use x="467.626953" xlink:href="#DejaVuSans-110"/>
      <use x="531.005859" xlink:href="#DejaVuSans-32"/>
      <use x="562.792969" xlink:href="#DejaVuSans-105"/>
      <use x="590.576172" xlink:href="#DejaVuSans-110"/>
      <use x="653.955078" xlink:href="#DejaVuSans-32"/>
      <use x="685.742188" xlink:href="#DejaVuSans-109"/>
      <use x="783.154297" xlink:href="#DejaVuSans-101"/>
      <use x="844.677734" xlink:href="#DejaVuSans-116"/>
      <use x="883.886719" xlink:href="#DejaVuSans-101"/>
      <use x="945.410156" xlink:href="#DejaVuSans-114"/>
      <use x="986.523438" xlink:href="#DejaVuSans-115"/>
     </g>
    </g>
   </g>
   <g id="line2d_60">
    <defs>
     <path d="M -3 0 
L 3 0 
M 0 3 
L 0 -3 
" id="me0f2045db3" style="stroke:#ff0000;"/>
    </defs>
    <g clip-path="url(#p767e8b9774)">
     <use style="fill:#ff0000;stroke:#ff0000;" x="71.669034" xlink:href="#me0f2045db3" y="381.012358"/>
     <use style="fill:#ff0000;stroke:#ff0000;" x="112.189459" xlink:href="#me0f2045db3" y="348.910976"/>
     <use style="fill:#ff0000;stroke:#ff0000;" x="149.471745" xlink:href="#me0f2045db3" y="325.457578"/>
     <use style="fill:#ff0000;stroke:#ff0000;" x="181.634616" xlink:href="#me0f2045db3" y="307.288101"/>
     <use style="fill:#ff0000;stroke:#ff0000;" x="222.155041" xlink:href="#me0f2045db3" y="291.329682"/>
     <use style="fill:#ff0000;stroke:#ff0000;" x="236.617407" xlink:href="#me0f2045db3" y="286.867263"/>
     <use style="fill:#ff0000;stroke:#ff0000;" x="254.317912" xlink:href="#me0f2045db3" y="281.93997"/>
     <use style="fill:#ff0000;stroke:#ff0000;" x="273.069074" xlink:href="#me0f2045db3" y="276.765563"/>
     <use style="fill:#ff0000;stroke:#ff0000;" x="289.93017" xlink:href="#me0f2045db3" y="273.671046"/>
     <use style="fill:#ff0000;stroke:#ff0000;" x="294.838338" xlink:href="#me0f2045db3" y="272.213683"/>
     <use style="fill:#ff0000;stroke:#ff0000;" x="309.300703" xlink:href="#me0f2045db3" y="269.457066"/>
     <use style="fill:#ff0000;stroke:#ff0000;" x="321.528459" xlink:href="#me0f2045db3" y="266.887486"/>
     <use style="fill:#ff0000;stroke:#ff0000;" x="332.120623" xlink:href="#me0f2045db3" y="265.665226"/>
     <use style="fill:#ff0000;stroke:#ff0000;" x="341.463574" xlink:href="#me0f2045db3" y="263.332996"/>
     <use style="fill:#ff0000;stroke:#ff0000;" x="349.821129" xlink:href="#me0f2045db3" y="261.673456"/>
     <use style="fill:#ff0000;stroke:#ff0000;" x="370.632754" xlink:href="#me0f2045db3" y="259.059539"/>
     <use style="fill:#ff0000;stroke:#ff0000;" x="387.103415" xlink:href="#me0f2045db3" y="255.21962"/>
     <use style="fill:#ff0000;stroke:#ff0000;" x="404.80392" xlink:href="#me0f2045db3" y="254.317511"/>
     <use style="fill:#ff0000;stroke:#ff0000;" x="425.615545" xlink:href="#me0f2045db3" y="251.319254"/>
     <use style="fill:#ff0000;stroke:#ff0000;" x="442.086206" xlink:href="#me0f2045db3" y="249.314195"/>
     <use style="fill:#ff0000;stroke:#ff0000;" x="455.717952" xlink:href="#me0f2045db3" y="247.409936"/>
     <use style="fill:#ff0000;stroke:#ff0000;" x="477.487216" xlink:href="#me0f2045db3" y="244.895199"/>
    </g>
   </g>
   <g id="line2d_61">
    <defs>
     <path d="M -3 3 
L 3 -3 
M -3 -3 
L 3 3 
" id="m5e23e53bc2" style="stroke:#0000ff;"/>
    </defs>
    <g clip-path="url(#p767e8b9774)">
     <use style="fill:#0000ff;stroke:#0000ff;" x="85.662764" xlink:href="#m5e23e53bc2" y="346.099149"/>
     <use style="fill:#0000ff;stroke:#0000ff;" x="99.656495" xlink:href="#m5e23e53bc2" y="339.161295"/>
     <use style="fill:#0000ff;stroke:#0000ff;" x="113.650225" xlink:href="#m5e23e53bc2" y="332.579773"/>
     <use style="fill:#0000ff;stroke:#0000ff;" x="127.643956" xlink:href="#m5e23e53bc2" y="326.4702"/>
     <use style="fill:#0000ff;stroke:#0000ff;" x="141.637686" xlink:href="#m5e23e53bc2" y="320.948768"/>
     <use style="fill:#0000ff;stroke:#0000ff;" x="155.631417" xlink:href="#m5e23e53bc2" y="316.110142"/>
     <use style="fill:#0000ff;stroke:#0000ff;" x="169.625147" xlink:href="#m5e23e53bc2" y="311.999164"/>
     <use style="fill:#0000ff;stroke:#0000ff;" x="183.618877" xlink:href="#m5e23e53bc2" y="308.620858"/>
     <use style="fill:#0000ff;stroke:#0000ff;" x="197.612608" xlink:href="#m5e23e53bc2" y="306.024168"/>
     <use style="fill:#0000ff;stroke:#0000ff;" x="211.606338" xlink:href="#m5e23e53bc2" y="304.327038"/>
     <use style="fill:#0000ff;stroke:#0000ff;" x="225.600069" xlink:href="#m5e23e53bc2" y="303.632826"/>
     <use style="fill:#0000ff;stroke:#0000ff;" x="239.593799" xlink:href="#m5e23e53bc2" y="303.905448"/>
     <use style="fill:#0000ff;stroke:#0000ff;" x="253.587529" xlink:href="#m5e23e53bc2" y="304.776318"/>
     <use style="fill:#0000ff;stroke:#0000ff;" x="267.58126" xlink:href="#m5e23e53bc2" y="305.348325"/>
     <use style="fill:#0000ff;stroke:#0000ff;" x="281.57499" xlink:href="#m5e23e53bc2" y="304.471857"/>
     <use style="fill:#0000ff;stroke:#0000ff;" x="295.568721" xlink:href="#m5e23e53bc2" y="302.661619"/>
     <use style="fill:#0000ff;stroke:#0000ff;" x="309.562451" xlink:href="#m5e23e53bc2" y="304.079727"/>
     <use style="fill:#0000ff;stroke:#0000ff;" x="323.556181" xlink:href="#m5e23e53bc2" y="305.416899"/>
     <use style="fill:#0000ff;stroke:#0000ff;" x="337.549912" xlink:href="#m5e23e53bc2" y="299.483665"/>
     <use style="fill:#0000ff;stroke:#0000ff;" x="351.543642" xlink:href="#m5e23e53bc2" y="328.513734"/>
     <use style="fill:#0000ff;stroke:#0000ff;" x="365.537373" xlink:href="#m5e23e53bc2" y="264.378632"/>
     <use style="fill:#0000ff;stroke:#0000ff;" x="370.499124" xlink:href="#m5e23e53bc2" y="31205.3725"/>
     <use style="fill:#0000ff;stroke:#0000ff;" x="388.558667" xlink:href="#m5e23e53bc2" y="31205.3725"/>
     <use style="fill:#0000ff;stroke:#0000ff;" x="393.524833" xlink:href="#m5e23e53bc2" y="221.704629"/>
     <use style="fill:#0000ff;stroke:#0000ff;" x="407.518564" xlink:href="#m5e23e53bc2" y="157.99244"/>
     <use style="fill:#0000ff;stroke:#0000ff;" x="412.491313" xlink:href="#m5e23e53bc2" y="31205.3725"/>
     <use style="fill:#0000ff;stroke:#0000ff;" x="430.525694" xlink:href="#m5e23e53bc2" y="31205.3725"/>
     <use style="fill:#0000ff;stroke:#0000ff;" x="435.506025" xlink:href="#m5e23e53bc2" y="84.503267"/>
     <use style="fill:#0000ff;stroke:#0000ff;" x="440.486355" xlink:href="#m5e23e53bc2" y="31205.3725"/>
    </g>
   </g>
   <g id="line2d_62">
    <path clip-path="url(#p767e8b9774)" d="M 71.669034 375.08783 
L 90.993709 358.121335 
L 110.318385 343.740286 
L 129.64306 331.452406 
L 148.967735 320.868534 
L 168.292411 311.679972 
L 187.617086 303.640885 
L 206.941761 296.554662 
L 226.266437 290.263327 
L 245.591112 284.639317 
L 264.915787 279.579103 
L 284.240463 274.99821 
L 303.565138 270.827343 
L 322.889813 267.009347 
L 342.214489 263.496823 
L 361.539164 260.250248 
L 380.863839 257.236493 
L 400.188515 254.427635 
L 419.51319 251.800024 
L 438.837865 249.33352 
L 458.162541 247.010891 
L 477.487216 244.817321 
" style="fill:none;stroke:#008000;stroke-linecap:square;stroke-width:1.5;"/>
   </g>
   <g id="line2d_63">
    <path clip-path="url(#p767e8b9774)" d="M 85.662764 341.313854 
L 99.656495 336.097675 
L 113.650225 331.15353 
L 127.643956 326.527076 
L 141.637686 322.268338 
L 155.631417 318.429564 
L 169.625147 315.060754 
L 183.618877 312.201403 
L 197.612608 309.866863 
L 211.606338 308.02895 
L 225.600069 306.595842 
L 239.593799 305.410417 
L 253.587529 304.307413 
L 267.58126 303.264537 
L 281.57499 302.540011 
L 295.568721 302.45244 
L 309.562451 303.000389 
L 323.556181 303.790696 
L 337.549912 304.131889 
L 351.543642 303.325246 
L 365.537373 301.383123 
L 379.531103 299.466218 
L 393.524833 298.947453 
L 407.518564 300.309465 
L 421.512294 302.654305 
L 435.506025 302.878791 
L 449.499755 298.113324 
L 463.493486 299.376009 
" style="fill:none;stroke:#bfbf00;stroke-linecap:square;stroke-width:1.5;"/>
   </g>
   <g id="patch_3">
    <path d="M 51.378125 395.837812 
L 51.378125 69.677812 
" style="fill:none;stroke:#000000;stroke-linecap:square;stroke-linejoin:miter;stroke-width:0.8;"/>
   </g>
   <g id="patch_4">
    <path d="M 497.778125 395.837812 
L 497.778125 69.677812 
" style="fill:none;stroke:#000000;stroke-linecap:square;stroke-linejoin:miter;stroke-width:0.8;"/>
   </g>
   <g id="patch_5">
    <path d="M 51.378125 395.837812 
L 497.778125 395.837812 
" style="fill:none;stroke:#000000;stroke-linecap:square;stroke-linejoin:miter;stroke-width:0.8;"/>
   </g>
   <g id="patch_6">
    <path d="M 51.378125 69.677812 
L 497.778125 69.677812 
" style="fill:none;stroke:#000000;stroke-linecap:square;stroke-linejoin:miter;stroke-width:0.8;"/>
   </g>
   <g id="text_9">
    <!-- Theis (1935) -->
    <defs>
     <path d="M 54.890625 33.015625 
L 54.890625 0 
L 45.90625 0 
L 45.90625 32.71875 
Q 45.90625 40.484375 42.875 44.328125 
Q 39.84375 48.1875 33.796875 48.1875 
Q 26.515625 48.1875 22.3125 43.546875 
Q 18.109375 38.921875 18.109375 30.90625 
L 18.109375 0 
L 9.078125 0 
L 9.078125 75.984375 
L 18.109375 75.984375 
L 18.109375 46.1875 
Q 21.34375 51.125 25.703125 53.5625 
Q 30.078125 56 35.796875 56 
Q 45.21875 56 50.046875 50.171875 
Q 54.890625 44.34375 54.890625 33.015625 
z
" id="DejaVuSans-104"/>
     <path d="M 31 75.875 
Q 24.46875 64.65625 21.28125 53.65625 
Q 18.109375 42.671875 18.109375 31.390625 
Q 18.109375 20.125 21.3125 9.0625 
Q 24.515625 -2 31 -13.1875 
L 23.1875 -13.1875 
Q 15.875 -1.703125 12.234375 9.375 
Q 8.59375 20.453125 8.59375 31.390625 
Q 8.59375 42.28125 12.203125 53.3125 
Q 15.828125 64.359375 23.1875 75.875 
z
" id="DejaVuSans-40"/>
     <path d="M 10.984375 1.515625 
L 10.984375 10.5 
Q 14.703125 8.734375 18.5 7.8125 
Q 22.3125 6.890625 25.984375 6.890625 
Q 35.75 6.890625 40.890625 13.453125 
Q 46.046875 20.015625 46.78125 33.40625 
Q 43.953125 29.203125 39.59375 26.953125 
Q 35.25 24.703125 29.984375 24.703125 
Q 19.046875 24.703125 12.671875 31.3125 
Q 6.296875 37.9375 6.296875 49.421875 
Q 6.296875 60.640625 12.9375 67.421875 
Q 19.578125 74.21875 30.609375 74.21875 
Q 43.265625 74.21875 49.921875 64.515625 
Q 56.59375 54.828125 56.59375 36.375 
Q 56.59375 19.140625 48.40625 8.859375 
Q 40.234375 -1.421875 26.421875 -1.421875 
Q 22.703125 -1.421875 18.890625 -0.6875 
Q 15.09375 0.046875 10.984375 1.515625 
z
M 30.609375 32.421875 
Q 37.25 32.421875 41.125 36.953125 
Q 45.015625 41.5 45.015625 49.421875 
Q 45.015625 57.28125 41.125 61.84375 
Q 37.25 66.40625 30.609375 66.40625 
Q 23.96875 66.40625 20.09375 61.84375 
Q 16.21875 57.28125 16.21875 49.421875 
Q 16.21875 41.5 20.09375 36.953125 
Q 23.96875 32.421875 30.609375 32.421875 
z
" id="DejaVuSans-57"/>
     <path d="M 10.796875 72.90625 
L 49.515625 72.90625 
L 49.515625 64.59375 
L 19.828125 64.59375 
L 19.828125 46.734375 
Q 21.96875 47.46875 24.109375 47.828125 
Q 26.265625 48.1875 28.421875 48.1875 
Q 40.625 48.1875 47.75 41.5 
Q 54.890625 34.8125 54.890625 23.390625 
Q 54.890625 11.625 47.5625 5.09375 
Q 40.234375 -1.421875 26.90625 -1.421875 
Q 22.3125 -1.421875 17.546875 -0.640625 
Q 12.796875 0.140625 7.71875 1.703125 
L 7.71875 11.625 
Q 12.109375 9.234375 16.796875 8.0625 
Q 21.484375 6.890625 26.703125 6.890625 
Q 35.15625 6.890625 40.078125 11.328125 
Q 45.015625 15.765625 45.015625 23.390625 
Q 45.015625 31 40.078125 35.4375 
Q 35.15625 39.890625 26.703125 39.890625 
Q 22.75 39.890625 18.8125 39.015625 
Q 14.890625 38.140625 10.796875 36.28125 
z
" id="DejaVuSans-53"/>
     <path d="M 8.015625 75.875 
L 15.828125 75.875 
Q 23.140625 64.359375 26.78125 53.3125 
Q 30.421875 42.28125 30.421875 31.390625 
Q 30.421875 20.453125 26.78125 9.375 
Q 23.140625 -1.703125 15.828125 -13.1875 
L 8.015625 -13.1875 
Q 14.5 -2 17.703125 9.0625 
Q 20.90625 20.125 20.90625 31.390625 
Q 20.90625 42.671875 17.703125 53.65625 
Q 14.5 64.65625 8.015625 75.875 
z
" id="DejaVuSans-41"/>
    </defs>
    <g transform="translate(236.767812 63.677812)scale(0.12 -0.12)">
     <use xlink:href="#DejaVuSans-84"/>
     <use x="61.083984" xlink:href="#DejaVuSans-104"/>
     <use x="124.462891" xlink:href="#DejaVuSans-101"/>
     <use x="185.986328" xlink:href="#DejaVuSans-105"/>
     <use x="213.769531" xlink:href="#DejaVuSans-115"/>
     <use x="265.869141" xlink:href="#DejaVuSans-32"/>
     <use x="297.65625" xlink:href="#DejaVuSans-40"/>
     <use x="336.669922" xlink:href="#DejaVuSans-49"/>
     <use x="400.292969" xlink:href="#DejaVuSans-57"/>
     <use x="463.916016" xlink:href="#DejaVuSans-51"/>
     <use x="527.539062" xlink:href="#DejaVuSans-53"/>
     <use x="591.162109" xlink:href="#DejaVuSans-41"/>
    </g>
   </g>
   <g id="legend_1">
    <g id="patch_7">
     <path d="M 58.378125 136.390312 
L 187.7125 136.390312 
Q 189.7125 136.390312 189.7125 134.390312 
L 189.7125 76.677812 
Q 189.7125 74.677812 187.7125 74.677812 
L 58.378125 74.677812 
Q 56.378125 74.677812 56.378125 76.677812 
L 56.378125 134.390312 
Q 56.378125 136.390312 58.378125 136.390312 
z
" style="fill:#ffffff;opacity:0.8;stroke:#cccccc;stroke-linejoin:miter;"/>
    </g>
    <g id="line2d_64"/>
    <g id="line2d_65">
     <g>
      <use style="fill:#ff0000;stroke:#ff0000;" x="70.378125" xlink:href="#me0f2045db3" y="82.77625"/>
     </g>
    </g>
    <g id="text_10">
     <!-- Drawdown -->
     <g transform="translate(88.378125 86.27625)scale(0.1 -0.1)">
      <use xlink:href="#DejaVuSans-68"/>
      <use x="77.001953" xlink:href="#DejaVuSans-114"/>
      <use x="118.115234" xlink:href="#DejaVuSans-97"/>
      <use x="179.394531" xlink:href="#DejaVuSans-119"/>
      <use x="261.181641" xlink:href="#DejaVuSans-100"/>
      <use x="324.658203" xlink:href="#DejaVuSans-111"/>
      <use x="385.839844" xlink:href="#DejaVuSans-119"/>
      <use x="467.626953" xlink:href="#DejaVuSans-110"/>
     </g>
    </g>
    <g id="line2d_66"/>
    <g id="line2d_67">
     <g>
      <use style="fill:#0000ff;stroke:#0000ff;" x="70.378125" xlink:href="#m5e23e53bc2" y="97.454375"/>
     </g>
    </g>
    <g id="text_11">
     <!-- Derivative -->
     <defs>
      <path d="M 2.984375 54.6875 
L 12.5 54.6875 
L 29.59375 8.796875 
L 46.6875 54.6875 
L 56.203125 54.6875 
L 35.6875 0 
L 23.484375 0 
z
" id="DejaVuSans-118"/>
     </defs>
     <g transform="translate(88.378125 100.954375)scale(0.1 -0.1)">
      <use xlink:href="#DejaVuSans-68"/>
      <use x="77.001953" xlink:href="#DejaVuSans-101"/>
      <use x="138.525391" xlink:href="#DejaVuSans-114"/>
      <use x="179.638672" xlink:href="#DejaVuSans-105"/>
      <use x="207.421875" xlink:href="#DejaVuSans-118"/>
      <use x="266.601562" xlink:href="#DejaVuSans-97"/>
      <use x="327.880859" xlink:href="#DejaVuSans-116"/>
      <use x="367.089844" xlink:href="#DejaVuSans-105"/>
      <use x="394.873047" xlink:href="#DejaVuSans-118"/>
      <use x="454.052734" xlink:href="#DejaVuSans-101"/>
     </g>
    </g>
    <g id="line2d_68">
     <path d="M 60.378125 112.1325 
L 80.378125 112.1325 
" style="fill:none;stroke:#008000;stroke-linecap:square;stroke-width:1.5;"/>
    </g>
    <g id="line2d_69"/>
    <g id="text_12">
     <!-- Theis (1935) model -->
     <defs>
      <path d="M 9.421875 75.984375 
L 18.40625 75.984375 
L 18.40625 0 
L 9.421875 0 
z
" id="DejaVuSans-108"/>
     </defs>
     <g transform="translate(88.378125 115.6325)scale(0.1 -0.1)">
      <use xlink:href="#DejaVuSans-84"/>
      <use x="61.083984" xlink:href="#DejaVuSans-104"/>
      <use x="124.462891" xlink:href="#DejaVuSans-101"/>
      <use x="185.986328" xlink:href="#DejaVuSans-105"/>
      <use x="213.769531" xlink:href="#DejaVuSans-115"/>
      <use x="265.869141" xlink:href="#DejaVuSans-32"/>
      <use x="297.65625" xlink:href="#DejaVuSans-40"/>
      <use x="336.669922" xlink:href="#DejaVuSans-49"/>
      <use x="400.292969" xlink:href="#DejaVuSans-57"/>
      <use x="463.916016" xlink:href="#DejaVuSans-51"/>
      <use x="527.539062" xlink:href="#DejaVuSans-53"/>
      <use x="591.162109" xlink:href="#DejaVuSans-41"/>
      <use x="630.175781" xlink:href="#DejaVuSans-32"/>
      <use x="661.962891" xlink:href="#DejaVuSans-109"/>
      <use x="759.375" xlink:href="#DejaVuSans-111"/>
      <use x="820.556641" xlink:href="#DejaVuSans-100"/>
      <use x="884.033203" xlink:href="#DejaVuSans-101"/>
      <use x="945.556641" xlink:href="#DejaVuSans-108"/>
     </g>
    </g>
    <g id="line2d_70">
     <path d="M 60.378125 126.810625 
L 80.378125 126.810625 
" style="fill:none;stroke:#bfbf00;stroke-linecap:square;stroke-width:1.5;"/>
    </g>
    <g id="line2d_71"/>
    <g id="text_13">
     <!-- Model derivative -->
     <defs>
      <path d="M 9.8125 72.90625 
L 24.515625 72.90625 
L 43.109375 23.296875 
L 61.8125 72.90625 
L 76.515625 72.90625 
L 76.515625 0 
L 66.890625 0 
L 66.890625 64.015625 
L 48.09375 14.015625 
L 38.1875 14.015625 
L 19.390625 64.015625 
L 19.390625 0 
L 9.8125 0 
z
" id="DejaVuSans-77"/>
     </defs>
     <g transform="translate(88.378125 130.310625)scale(0.1 -0.1)">
      <use xlink:href="#DejaVuSans-77"/>
      <use x="86.279297" xlink:href="#DejaVuSans-111"/>
      <use x="147.460938" xlink:href="#DejaVuSans-100"/>
      <use x="210.9375" xlink:href="#DejaVuSans-101"/>
      <use x="272.460938" xlink:href="#DejaVuSans-108"/>
      <use x="300.244141" xlink:href="#DejaVuSans-32"/>
      <use x="332.03125" xlink:href="#DejaVuSans-100"/>
      <use x="395.507812" xlink:href="#DejaVuSans-101"/>
      <use x="457.03125" xlink:href="#DejaVuSans-114"/>
      <use x="498.144531" xlink:href="#DejaVuSans-105"/>
      <use x="525.927734" xlink:href="#DejaVuSans-118"/>
      <use x="585.107422" xlink:href="#DejaVuSans-97"/>
      <use x="646.386719" xlink:href="#DejaVuSans-116"/>
      <use x="685.595703" xlink:href="#DejaVuSans-105"/>
      <use x="713.378906" xlink:href="#DejaVuSans-118"/>
      <use x="772.558594" xlink:href="#DejaVuSans-101"/>
     </g>
    </g>
   </g>
  </g>
  <g id="text_14">
   <!-- openhytest Developer -->
   <defs>
    <path d="M 18.109375 8.203125 
L 18.109375 -20.796875 
L 9.078125 -20.796875 
L 9.078125 54.6875 
L 18.109375 54.6875 
L 18.109375 46.390625 
Q 20.953125 51.265625 25.265625 53.625 
Q 29.59375 56 35.59375 56 
Q 45.5625 56 51.78125 48.09375 
Q 58.015625 40.1875 58.015625 27.296875 
Q 58.015625 14.40625 51.78125 6.484375 
Q 45.5625 -1.421875 35.59375 -1.421875 
Q 29.59375 -1.421875 25.265625 0.953125 
Q 20.953125 3.328125 18.109375 8.203125 
z
M 48.6875 27.296875 
Q 48.6875 37.203125 44.609375 42.84375 
Q 40.53125 48.484375 33.40625 48.484375 
Q 26.265625 48.484375 22.1875 42.84375 
Q 18.109375 37.203125 18.109375 27.296875 
Q 18.109375 17.390625 22.1875 11.75 
Q 26.265625 6.109375 33.40625 6.109375 
Q 40.53125 6.109375 44.609375 11.75 
Q 48.6875 17.390625 48.6875 27.296875 
z
" id="DejaVuSans-112"/>
    <path d="M 32.171875 -5.078125 
Q 28.375 -14.84375 24.75 -17.8125 
Q 21.140625 -20.796875 15.09375 -20.796875 
L 7.90625 -20.796875 
L 7.90625 -13.28125 
L 13.1875 -13.28125 
Q 16.890625 -13.28125 18.9375 -11.515625 
Q 21 -9.765625 23.484375 -3.21875 
L 25.09375 0.875 
L 2.984375 54.6875 
L 12.5 54.6875 
L 29.59375 11.921875 
L 46.6875 54.6875 
L 56.203125 54.6875 
z
" id="DejaVuSans-121"/>
   </defs>
   <g transform="translate(51.378125 17.837812)scale(0.14 -0.14)">
    <use xlink:href="#DejaVuSans-111"/>
    <use x="61.181641" xlink:href="#DejaVuSans-112"/>
    <use x="124.658203" xlink:href="#DejaVuSans-101"/>
    <use x="186.181641" xlink:href="#DejaVuSans-110"/>
    <use x="249.560547" xlink:href="#DejaVuSans-104"/>
    <use x="312.939453" xlink:href="#DejaVuSans-121"/>
    <use x="372.119141" xlink:href="#DejaVuSans-116"/>
    <use x="411.328125" xlink:href="#DejaVuSans-101"/>
    <use x="472.851562" xlink:href="#DejaVuSans-115"/>
    <use x="524.951172" xlink:href="#DejaVuSans-116"/>
    <use x="564.160156" xlink:href="#DejaVuSans-32"/>
    <use x="595.947266" xlink:href="#DejaVuSans-68"/>
    <use x="672.949219" xlink:href="#DejaVuSans-101"/>
    <use x="734.472656" xlink:href="#DejaVuSans-118"/>
    <use x="793.652344" xlink:href="#DejaVuSans-101"/>
    <use x="855.175781" xlink:href="#DejaVuSans-108"/>
    <use x="882.958984" xlink:href="#DejaVuSans-111"/>
    <use x="944.140625" xlink:href="#DejaVuSans-112"/>
    <use x="1007.617188" xlink:href="#DejaVuSans-101"/>
    <use x="1069.140625" xlink:href="#DejaVuSans-114"/>
   </g>
  </g>
  <g id="text_15">
   <!-- Theis (1935) -->
   <g transform="translate(51.378125 39.437813)scale(0.14 -0.14)">
    <use xlink:href="#DejaVuSans-84"/>
    <use x="61.083984" xlink:href="#DejaVuSans-104"/>
    <use x="124.462891" xlink:href="#DejaVuSans-101"/>
    <use x="185.986328" xlink:href="#DejaVuSans-105"/>
    <use x="213.769531" xlink:href="#DejaVuSans-115"/>
    <use x="265.869141" xlink:href="#DejaVuSans-32"/>
    <use x="297.65625" xlink:href="#DejaVuSans-40"/>
    <use x="336.669922" xlink:href="#DejaVuSans-49"/>
    <use x="400.292969" xlink:href="#DejaVuSans-57"/>
    <use x="463.916016" xlink:href="#DejaVuSans-51"/>
    <use x="527.539062" xlink:href="#DejaVuSans-53"/>
    <use x="591.162109" xlink:href="#DejaVuSans-41"/>
   </g>
  </g>
  <g id="text_16">
   <!-- Test Data :  -->
   <defs>
    <path d="M 11.71875 12.40625 
L 22.015625 12.40625 
L 22.015625 0 
L 11.71875 0 
z
M 11.71875 51.703125 
L 22.015625 51.703125 
L 22.015625 39.3125 
L 11.71875 39.3125 
z
" id="DejaVuSans-58"/>
   </defs>
   <g transform="translate(555.378125 82.637812)scale(0.14 -0.14)">
    <use xlink:href="#DejaVuSans-84"/>
    <use x="60.818359" xlink:href="#DejaVuSans-101"/>
    <use x="122.341797" xlink:href="#DejaVuSans-115"/>
    <use x="174.441406" xlink:href="#DejaVuSans-116"/>
    <use x="213.650391" xlink:href="#DejaVuSans-32"/>
    <use x="245.4375" xlink:href="#DejaVuSans-68"/>
    <use x="322.439453" xlink:href="#DejaVuSans-97"/>
    <use x="383.71875" xlink:href="#DejaVuSans-116"/>
    <use x="422.927734" xlink:href="#DejaVuSans-97"/>
    <use x="484.207031" xlink:href="#DejaVuSans-32"/>
    <use x="515.994141" xlink:href="#DejaVuSans-58"/>
    <use x="549.685547" xlink:href="#DejaVuSans-32"/>
   </g>
  </g>
  <g id="text_17">
   <!-- Discharge rate : 1.39e-02 m/s -->
   <defs>
    <path d="M 45.40625 27.984375 
Q 45.40625 37.75 41.375 43.109375 
Q 37.359375 48.484375 30.078125 48.484375 
Q 22.859375 48.484375 18.828125 43.109375 
Q 14.796875 37.75 14.796875 27.984375 
Q 14.796875 18.265625 18.828125 12.890625 
Q 22.859375 7.515625 30.078125 7.515625 
Q 37.359375 7.515625 41.375 12.890625 
Q 45.40625 18.265625 45.40625 27.984375 
z
M 54.390625 6.78125 
Q 54.390625 -7.171875 48.1875 -13.984375 
Q 42 -20.796875 29.203125 -20.796875 
Q 24.46875 -20.796875 20.265625 -20.09375 
Q 16.0625 -19.390625 12.109375 -17.921875 
L 12.109375 -9.1875 
Q 16.0625 -11.328125 19.921875 -12.34375 
Q 23.78125 -13.375 27.78125 -13.375 
Q 36.625 -13.375 41.015625 -8.765625 
Q 45.40625 -4.15625 45.40625 5.171875 
L 45.40625 9.625 
Q 42.625 4.78125 38.28125 2.390625 
Q 33.9375 0 27.875 0 
Q 17.828125 0 11.671875 7.65625 
Q 5.515625 15.328125 5.515625 27.984375 
Q 5.515625 40.671875 11.671875 48.328125 
Q 17.828125 56 27.875 56 
Q 33.9375 56 38.28125 53.609375 
Q 42.625 51.21875 45.40625 46.390625 
L 45.40625 54.6875 
L 54.390625 54.6875 
z
" id="DejaVuSans-103"/>
    <path d="M 10.6875 12.40625 
L 21 12.40625 
L 21 0 
L 10.6875 0 
z
" id="DejaVuSans-46"/>
    <path d="M 4.890625 31.390625 
L 31.203125 31.390625 
L 31.203125 23.390625 
L 4.890625 23.390625 
z
" id="DejaVuSans-45"/>
    <path d="M 25.59375 54.6875 
Q 30.078125 53.8125 32.546875 51.140625 
Q 35.015625 48.484375 35.015625 44.484375 
Q 35.015625 38.421875 30.375 35.15625 
Q 25.734375 31.890625 17.09375 31.890625 
Q 14.3125 31.890625 11.25 32.390625 
Q 8.203125 32.90625 4.78125 33.890625 
L 4.78125 39.796875 
Q 7.328125 38.484375 10.234375 37.84375 
Q 13.140625 37.203125 16.40625 37.203125 
Q 21.734375 37.203125 24.65625 39.125 
Q 27.59375 41.0625 27.59375 44.484375 
Q 27.59375 48.09375 24.875 49.953125 
Q 22.171875 51.8125 16.890625 51.8125 
L 12.703125 51.8125 
L 12.703125 57.078125 
L 17.28125 57.078125 
Q 21.875 57.078125 24.234375 58.609375 
Q 26.609375 60.15625 26.609375 63.09375 
Q 26.609375 65.921875 24.171875 67.40625 
Q 21.734375 68.890625 17.09375 68.890625 
Q 15.140625 68.890625 12.640625 68.453125 
Q 10.15625 68.015625 6.203125 66.890625 
L 6.203125 72.515625 
Q 9.765625 73.34375 12.890625 73.78125 
Q 16.015625 74.21875 18.703125 74.21875 
Q 25.734375 74.21875 29.859375 71.328125 
Q 33.984375 68.453125 33.984375 63.625 
Q 33.984375 60.25 31.78125 57.90625 
Q 29.59375 55.5625 25.59375 54.6875 
z
" id="DejaVuSans-179"/>
    <path d="M 25.390625 72.90625 
L 33.6875 72.90625 
L 8.296875 -9.28125 
L 0 -9.28125 
z
" id="DejaVuSans-47"/>
   </defs>
   <g transform="translate(584.178125 104.237812)scale(0.14 -0.14)">
    <use xlink:href="#DejaVuSans-68"/>
    <use x="77.001953" xlink:href="#DejaVuSans-105"/>
    <use x="104.785156" xlink:href="#DejaVuSans-115"/>
    <use x="156.884766" xlink:href="#DejaVuSans-99"/>
    <use x="211.865234" xlink:href="#DejaVuSans-104"/>
    <use x="275.244141" xlink:href="#DejaVuSans-97"/>
    <use x="336.523438" xlink:href="#DejaVuSans-114"/>
    <use x="377.621094" xlink:href="#DejaVuSans-103"/>
    <use x="441.097656" xlink:href="#DejaVuSans-101"/>
    <use x="502.621094" xlink:href="#DejaVuSans-32"/>
    <use x="534.408203" xlink:href="#DejaVuSans-114"/>
    <use x="575.521484" xlink:href="#DejaVuSans-97"/>
    <use x="636.800781" xlink:href="#DejaVuSans-116"/>
    <use x="676.009766" xlink:href="#DejaVuSans-101"/>
    <use x="737.533203" xlink:href="#DejaVuSans-32"/>
    <use x="769.320312" xlink:href="#DejaVuSans-58"/>
    <use x="803.011719" xlink:href="#DejaVuSans-32"/>
    <use x="834.798828" xlink:href="#DejaVuSans-49"/>
    <use x="898.421875" xlink:href="#DejaVuSans-46"/>
    <use x="930.208984" xlink:href="#DejaVuSans-51"/>
    <use x="993.832031" xlink:href="#DejaVuSans-57"/>
    <use x="1057.455078" xlink:href="#DejaVuSans-101"/>
    <use x="1118.978516" xlink:href="#DejaVuSans-45"/>
    <use x="1155.0625" xlink:href="#DejaVuSans-48"/>
    <use x="1218.685547" xlink:href="#DejaVuSans-50"/>
    <use x="1282.308594" xlink:href="#DejaVuSans-32"/>
    <use x="1314.095703" xlink:href="#DejaVuSans-109"/>
    <use x="1411.507812" xlink:href="#DejaVuSans-179"/>
    <use x="1451.595703" xlink:href="#DejaVuSans-47"/>
    <use x="1485.287109" xlink:href="#DejaVuSans-115"/>
   </g>
  </g>
  <g id="text_18">
   <!-- Radial distance : 250 m  -->
   <defs>
    <path d="M 44.390625 34.1875 
Q 47.5625 33.109375 50.5625 29.59375 
Q 53.5625 26.078125 56.59375 19.921875 
L 66.609375 0 
L 56 0 
L 46.6875 18.703125 
Q 43.0625 26.03125 39.671875 28.421875 
Q 36.28125 30.8125 30.421875 30.8125 
L 19.671875 30.8125 
L 19.671875 0 
L 9.8125 0 
L 9.8125 72.90625 
L 32.078125 72.90625 
Q 44.578125 72.90625 50.734375 67.671875 
Q 56.890625 62.453125 56.890625 51.90625 
Q 56.890625 45.015625 53.6875 40.46875 
Q 50.484375 35.9375 44.390625 34.1875 
z
M 19.671875 64.796875 
L 19.671875 38.921875 
L 32.078125 38.921875 
Q 39.203125 38.921875 42.84375 42.21875 
Q 46.484375 45.515625 46.484375 51.90625 
Q 46.484375 58.296875 42.84375 61.546875 
Q 39.203125 64.796875 32.078125 64.796875 
z
" id="DejaVuSans-82"/>
   </defs>
   <g transform="translate(584.178125 125.837812)scale(0.14 -0.14)">
    <use xlink:href="#DejaVuSans-82"/>
    <use x="69.451172" xlink:href="#DejaVuSans-97"/>
    <use x="130.730469" xlink:href="#DejaVuSans-100"/>
    <use x="194.207031" xlink:href="#DejaVuSans-105"/>
    <use x="221.990234" xlink:href="#DejaVuSans-97"/>
    <use x="283.269531" xlink:href="#DejaVuSans-108"/>
    <use x="311.052734" xlink:href="#DejaVuSans-32"/>
    <use x="342.839844" xlink:href="#DejaVuSans-100"/>
    <use x="406.316406" xlink:href="#DejaVuSans-105"/>
    <use x="434.099609" xlink:href="#DejaVuSans-115"/>
    <use x="486.199219" xlink:href="#DejaVuSans-116"/>
    <use x="525.408203" xlink:href="#DejaVuSans-97"/>
    <use x="586.6875" xlink:href="#DejaVuSans-110"/>
    <use x="650.066406" xlink:href="#DejaVuSans-99"/>
    <use x="705.046875" xlink:href="#DejaVuSans-101"/>
    <use x="766.570312" xlink:href="#DejaVuSans-32"/>
    <use x="798.357422" xlink:href="#DejaVuSans-58"/>
    <use x="832.048828" xlink:href="#DejaVuSans-32"/>
    <use x="863.835938" xlink:href="#DejaVuSans-50"/>
    <use x="927.458984" xlink:href="#DejaVuSans-53"/>
    <use x="991.082031" xlink:href="#DejaVuSans-48"/>
    <use x="1054.705078" xlink:href="#DejaVuSans-32"/>
    <use x="1086.492188" xlink:href="#DejaVuSans-109"/>
    <use x="1183.904297" xlink:href="#DejaVuSans-32"/>
   </g>
  </g>
  <g id="text_19">
   <!-- Hydraulic parameters : -->
   <defs>
    <path d="M 9.8125 72.90625 
L 19.671875 72.90625 
L 19.671875 43.015625 
L 55.515625 43.015625 
L 55.515625 72.90625 
L 65.375 72.90625 
L 65.375 0 
L 55.515625 0 
L 55.515625 34.71875 
L 19.671875 34.71875 
L 19.671875 0 
L 9.8125 0 
z
" id="DejaVuSans-72"/>
    <path d="M 8.5 21.578125 
L 8.5 54.6875 
L 17.484375 54.6875 
L 17.484375 21.921875 
Q 17.484375 14.15625 20.5 10.265625 
Q 23.53125 6.390625 29.59375 6.390625 
Q 36.859375 6.390625 41.078125 11.03125 
Q 45.3125 15.671875 45.3125 23.6875 
L 45.3125 54.6875 
L 54.296875 54.6875 
L 54.296875 0 
L 45.3125 0 
L 45.3125 8.40625 
Q 42.046875 3.421875 37.71875 1 
Q 33.40625 -1.421875 27.6875 -1.421875 
Q 18.265625 -1.421875 13.375 4.4375 
Q 8.5 10.296875 8.5 21.578125 
z
M 31.109375 56 
z
" id="DejaVuSans-117"/>
   </defs>
   <g transform="translate(555.378125 169.037812)scale(0.14 -0.14)">
    <use xlink:href="#DejaVuSans-72"/>
    <use x="75.195312" xlink:href="#DejaVuSans-121"/>
    <use x="134.375" xlink:href="#DejaVuSans-100"/>
    <use x="197.851562" xlink:href="#DejaVuSans-114"/>
    <use x="238.964844" xlink:href="#DejaVuSans-97"/>
    <use x="300.244141" xlink:href="#DejaVuSans-117"/>
    <use x="363.623047" xlink:href="#DejaVuSans-108"/>
    <use x="391.40625" xlink:href="#DejaVuSans-105"/>
    <use x="419.189453" xlink:href="#DejaVuSans-99"/>
    <use x="474.169922" xlink:href="#DejaVuSans-32"/>
    <use x="505.957031" xlink:href="#DejaVuSans-112"/>
    <use x="569.433594" xlink:href="#DejaVuSans-97"/>
    <use x="630.712891" xlink:href="#DejaVuSans-114"/>
    <use x="671.826172" xlink:href="#DejaVuSans-97"/>
    <use x="733.105469" xlink:href="#DejaVuSans-109"/>
    <use x="830.517578" xlink:href="#DejaVuSans-101"/>
    <use x="892.041016" xlink:href="#DejaVuSans-116"/>
    <use x="931.25" xlink:href="#DejaVuSans-101"/>
    <use x="992.773438" xlink:href="#DejaVuSans-114"/>
    <use x="1033.886719" xlink:href="#DejaVuSans-115"/>
    <use x="1085.986328" xlink:href="#DejaVuSans-32"/>
    <use x="1117.773438" xlink:href="#DejaVuSans-58"/>
   </g>
  </g>
  <g id="text_20">
   <!-- Transmissivity T : 1.43e-03 m/s -->
   <defs>
    <path d="M 13.09375 38.1875 
L 33.796875 38.1875 
L 33.796875 32.625 
L 4.59375 32.625 
L 4.59375 37.984375 
Q 6.25 39.5 9.328125 42.234375 
Q 26.125 57.125 26.125 61.71875 
Q 26.125 64.9375 23.578125 66.90625 
Q 21.046875 68.890625 16.890625 68.890625 
Q 14.359375 68.890625 11.375 68.03125 
Q 8.40625 67.1875 4.890625 65.484375 
L 4.890625 71.484375 
Q 8.640625 72.859375 11.890625 73.53125 
Q 15.140625 74.21875 17.921875 74.21875 
Q 25 74.21875 29.25 71 
Q 33.5 67.78125 33.5 62.5 
Q 33.5 55.71875 17.328125 41.84375 
Q 14.59375 39.5 13.09375 38.1875 
z
" id="DejaVuSans-178"/>
   </defs>
   <g transform="translate(584.178125 190.637812)scale(0.14 -0.14)">
    <use xlink:href="#DejaVuSans-84"/>
    <use x="60.865234" xlink:href="#DejaVuSans-114"/>
    <use x="101.978516" xlink:href="#DejaVuSans-97"/>
    <use x="163.257812" xlink:href="#DejaVuSans-110"/>
    <use x="226.636719" xlink:href="#DejaVuSans-115"/>
    <use x="278.736328" xlink:href="#DejaVuSans-109"/>
    <use x="376.148438" xlink:href="#DejaVuSans-105"/>
    <use x="403.931641" xlink:href="#DejaVuSans-115"/>
    <use x="456.03125" xlink:href="#DejaVuSans-115"/>
    <use x="508.130859" xlink:href="#DejaVuSans-105"/>
    <use x="535.914062" xlink:href="#DejaVuSans-118"/>
    <use x="595.09375" xlink:href="#DejaVuSans-105"/>
    <use x="622.876953" xlink:href="#DejaVuSans-116"/>
    <use x="662.085938" xlink:href="#DejaVuSans-121"/>
    <use x="721.265625" xlink:href="#DejaVuSans-32"/>
    <use x="753.052734" xlink:href="#DejaVuSans-84"/>
    <use x="814.136719" xlink:href="#DejaVuSans-32"/>
    <use x="845.923828" xlink:href="#DejaVuSans-58"/>
    <use x="879.615234" xlink:href="#DejaVuSans-32"/>
    <use x="911.402344" xlink:href="#DejaVuSans-49"/>
    <use x="975.025391" xlink:href="#DejaVuSans-46"/>
    <use x="1006.8125" xlink:href="#DejaVuSans-52"/>
    <use x="1070.435547" xlink:href="#DejaVuSans-51"/>
    <use x="1134.058594" xlink:href="#DejaVuSans-101"/>
    <use x="1195.582031" xlink:href="#DejaVuSans-45"/>
    <use x="1231.666016" xlink:href="#DejaVuSans-48"/>
    <use x="1295.289062" xlink:href="#DejaVuSans-51"/>
    <use x="1358.912109" xlink:href="#DejaVuSans-32"/>
    <use x="1390.699219" xlink:href="#DejaVuSans-109"/>
    <use x="1488.111328" xlink:href="#DejaVuSans-178"/>
    <use x="1528.199219" xlink:href="#DejaVuSans-47"/>
    <use x="1561.890625" xlink:href="#DejaVuSans-115"/>
   </g>
  </g>
  <g id="text_21">
   <!-- Storativity S : 2.11e-05  -->
   <defs>
    <path d="M 53.515625 70.515625 
L 53.515625 60.890625 
Q 47.90625 63.578125 42.921875 64.890625 
Q 37.9375 66.21875 33.296875 66.21875 
Q 25.25 66.21875 20.875 63.09375 
Q 16.5 59.96875 16.5 54.203125 
Q 16.5 49.359375 19.40625 46.890625 
Q 22.3125 44.4375 30.421875 42.921875 
L 36.375 41.703125 
Q 47.40625 39.59375 52.65625 34.296875 
Q 57.90625 29 57.90625 20.125 
Q 57.90625 9.515625 50.796875 4.046875 
Q 43.703125 -1.421875 29.984375 -1.421875 
Q 24.8125 -1.421875 18.96875 -0.25 
Q 13.140625 0.921875 6.890625 3.21875 
L 6.890625 13.375 
Q 12.890625 10.015625 18.65625 8.296875 
Q 24.421875 6.59375 29.984375 6.59375 
Q 38.421875 6.59375 43.015625 9.90625 
Q 47.609375 13.234375 47.609375 19.390625 
Q 47.609375 24.75 44.3125 27.78125 
Q 41.015625 30.8125 33.5 32.328125 
L 27.484375 33.5 
Q 16.453125 35.6875 11.515625 40.375 
Q 6.59375 45.0625 6.59375 53.421875 
Q 6.59375 63.09375 13.40625 68.65625 
Q 20.21875 74.21875 32.171875 74.21875 
Q 37.3125 74.21875 42.625 73.28125 
Q 47.953125 72.359375 53.515625 70.515625 
z
" id="DejaVuSans-83"/>
   </defs>
   <g transform="translate(584.178125 212.237812)scale(0.14 -0.14)">
    <use xlink:href="#DejaVuSans-83"/>
    <use x="63.476562" xlink:href="#DejaVuSans-116"/>
    <use x="102.685547" xlink:href="#DejaVuSans-111"/>
    <use x="163.867188" xlink:href="#DejaVuSans-114"/>
    <use x="204.980469" xlink:href="#DejaVuSans-97"/>
    <use x="266.259766" xlink:href="#DejaVuSans-116"/>
    <use x="305.46875" xlink:href="#DejaVuSans-105"/>
    <use x="333.251953" xlink:href="#DejaVuSans-118"/>
    <use x="392.431641" xlink:href="#DejaVuSans-105"/>
    <use x="420.214844" xlink:href="#DejaVuSans-116"/>
    <use x="459.423828" xlink:href="#DejaVuSans-121"/>
    <use x="518.603516" xlink:href="#DejaVuSans-32"/>
    <use x="550.390625" xlink:href="#DejaVuSans-83"/>
    <use x="613.867188" xlink:href="#DejaVuSans-32"/>
    <use x="645.654297" xlink:href="#DejaVuSans-58"/>
    <use x="679.345703" xlink:href="#DejaVuSans-32"/>
    <use x="711.132812" xlink:href="#DejaVuSans-50"/>
    <use x="774.755859" xlink:href="#DejaVuSans-46"/>
    <use x="806.542969" xlink:href="#DejaVuSans-49"/>
    <use x="870.166016" xlink:href="#DejaVuSans-49"/>
    <use x="933.789062" xlink:href="#DejaVuSans-101"/>
    <use x="995.3125" xlink:href="#DejaVuSans-45"/>
    <use x="1031.396484" xlink:href="#DejaVuSans-48"/>
    <use x="1095.019531" xlink:href="#DejaVuSans-53"/>
    <use x="1158.642578" xlink:href="#DejaVuSans-32"/>
   </g>
  </g>
  <g id="text_22">
   <!-- Radius of Investigation Ri : 2847 m -->
   <defs>
    <path d="M 37.109375 75.984375 
L 37.109375 68.5 
L 28.515625 68.5 
Q 23.6875 68.5 21.796875 66.546875 
Q 19.921875 64.59375 19.921875 59.515625 
L 19.921875 54.6875 
L 34.71875 54.6875 
L 34.71875 47.703125 
L 19.921875 47.703125 
L 19.921875 0 
L 10.890625 0 
L 10.890625 47.703125 
L 2.296875 47.703125 
L 2.296875 54.6875 
L 10.890625 54.6875 
L 10.890625 58.5 
Q 10.890625 67.625 15.140625 71.796875 
Q 19.390625 75.984375 28.609375 75.984375 
z
" id="DejaVuSans-102"/>
    <path d="M 9.8125 72.90625 
L 19.671875 72.90625 
L 19.671875 0 
L 9.8125 0 
z
" id="DejaVuSans-73"/>
    <path d="M 31.78125 34.625 
Q 24.75 34.625 20.71875 30.859375 
Q 16.703125 27.09375 16.703125 20.515625 
Q 16.703125 13.921875 20.71875 10.15625 
Q 24.75 6.390625 31.78125 6.390625 
Q 38.8125 6.390625 42.859375 10.171875 
Q 46.921875 13.96875 46.921875 20.515625 
Q 46.921875 27.09375 42.890625 30.859375 
Q 38.875 34.625 31.78125 34.625 
z
M 21.921875 38.8125 
Q 15.578125 40.375 12.03125 44.71875 
Q 8.5 49.078125 8.5 55.328125 
Q 8.5 64.0625 14.71875 69.140625 
Q 20.953125 74.21875 31.78125 74.21875 
Q 42.671875 74.21875 48.875 69.140625 
Q 55.078125 64.0625 55.078125 55.328125 
Q 55.078125 49.078125 51.53125 44.71875 
Q 48 40.375 41.703125 38.8125 
Q 48.828125 37.15625 52.796875 32.3125 
Q 56.78125 27.484375 56.78125 20.515625 
Q 56.78125 9.90625 50.3125 4.234375 
Q 43.84375 -1.421875 31.78125 -1.421875 
Q 19.734375 -1.421875 13.25 4.234375 
Q 6.78125 9.90625 6.78125 20.515625 
Q 6.78125 27.484375 10.78125 32.3125 
Q 14.796875 37.15625 21.921875 38.8125 
z
M 18.3125 54.390625 
Q 18.3125 48.734375 21.84375 45.5625 
Q 25.390625 42.390625 31.78125 42.390625 
Q 38.140625 42.390625 41.71875 45.5625 
Q 45.3125 48.734375 45.3125 54.390625 
Q 45.3125 60.0625 41.71875 63.234375 
Q 38.140625 66.40625 31.78125 66.40625 
Q 25.390625 66.40625 21.84375 63.234375 
Q 18.3125 60.0625 18.3125 54.390625 
z
" id="DejaVuSans-56"/>
    <path d="M 8.203125 72.90625 
L 55.078125 72.90625 
L 55.078125 68.703125 
L 28.609375 0 
L 18.3125 0 
L 43.21875 64.59375 
L 8.203125 64.59375 
z
" id="DejaVuSans-55"/>
   </defs>
   <g transform="translate(584.178125 233.837812)scale(0.14 -0.14)">
    <use xlink:href="#DejaVuSans-82"/>
    <use x="69.451172" xlink:href="#DejaVuSans-97"/>
    <use x="130.730469" xlink:href="#DejaVuSans-100"/>
    <use x="194.207031" xlink:href="#DejaVuSans-105"/>
    <use x="221.990234" xlink:href="#DejaVuSans-117"/>
    <use x="285.369141" xlink:href="#DejaVuSans-115"/>
    <use x="337.46875" xlink:href="#DejaVuSans-32"/>
    <use x="369.255859" xlink:href="#DejaVuSans-111"/>
    <use x="430.4375" xlink:href="#DejaVuSans-102"/>
    <use x="465.642578" xlink:href="#DejaVuSans-32"/>
    <use x="497.429688" xlink:href="#DejaVuSans-73"/>
    <use x="526.921875" xlink:href="#DejaVuSans-110"/>
    <use x="590.300781" xlink:href="#DejaVuSans-118"/>
    <use x="649.480469" xlink:href="#DejaVuSans-101"/>
    <use x="711.003906" xlink:href="#DejaVuSans-115"/>
    <use x="763.103516" xlink:href="#DejaVuSans-116"/>
    <use x="802.3125" xlink:href="#DejaVuSans-105"/>
    <use x="830.095703" xlink:href="#DejaVuSans-103"/>
    <use x="893.572266" xlink:href="#DejaVuSans-97"/>
    <use x="954.851562" xlink:href="#DejaVuSans-116"/>
    <use x="994.060547" xlink:href="#DejaVuSans-105"/>
    <use x="1021.84375" xlink:href="#DejaVuSans-111"/>
    <use x="1083.025391" xlink:href="#DejaVuSans-110"/>
    <use x="1146.404297" xlink:href="#DejaVuSans-32"/>
    <use x="1178.191406" xlink:href="#DejaVuSans-82"/>
    <use x="1247.673828" xlink:href="#DejaVuSans-105"/>
    <use x="1275.457031" xlink:href="#DejaVuSans-32"/>
    <use x="1307.244141" xlink:href="#DejaVuSans-58"/>
    <use x="1340.935547" xlink:href="#DejaVuSans-32"/>
    <use x="1372.722656" xlink:href="#DejaVuSans-50"/>
    <use x="1436.345703" xlink:href="#DejaVuSans-56"/>
    <use x="1499.96875" xlink:href="#DejaVuSans-52"/>
    <use x="1563.591797" xlink:href="#DejaVuSans-55"/>
    <use x="1627.214844" xlink:href="#DejaVuSans-32"/>
    <use x="1659.001953" xlink:href="#DejaVuSans-109"/>
   </g>
  </g>
  <g id="text_23">
   <!-- Fitting parameters : -->
   <defs>
    <path d="M 9.8125 72.90625 
L 51.703125 72.90625 
L 51.703125 64.59375 
L 19.671875 64.59375 
L 19.671875 43.109375 
L 48.578125 43.109375 
L 48.578125 34.8125 
L 19.671875 34.8125 
L 19.671875 0 
L 9.8125 0 
z
" id="DejaVuSans-70"/>
   </defs>
   <g transform="translate(555.378125 277.037812)scale(0.14 -0.14)">
    <use xlink:href="#DejaVuSans-70"/>
    <use x="57.410156" xlink:href="#DejaVuSans-105"/>
    <use x="85.193359" xlink:href="#DejaVuSans-116"/>
    <use x="124.402344" xlink:href="#DejaVuSans-116"/>
    <use x="163.611328" xlink:href="#DejaVuSans-105"/>
    <use x="191.394531" xlink:href="#DejaVuSans-110"/>
    <use x="254.773438" xlink:href="#DejaVuSans-103"/>
    <use x="318.25" xlink:href="#DejaVuSans-32"/>
    <use x="350.037109" xlink:href="#DejaVuSans-112"/>
    <use x="413.513672" xlink:href="#DejaVuSans-97"/>
    <use x="474.792969" xlink:href="#DejaVuSans-114"/>
    <use x="515.90625" xlink:href="#DejaVuSans-97"/>
    <use x="577.185547" xlink:href="#DejaVuSans-109"/>
    <use x="674.597656" xlink:href="#DejaVuSans-101"/>
    <use x="736.121094" xlink:href="#DejaVuSans-116"/>
    <use x="775.330078" xlink:href="#DejaVuSans-101"/>
    <use x="836.853516" xlink:href="#DejaVuSans-114"/>
    <use x="877.966797" xlink:href="#DejaVuSans-115"/>
    <use x="930.066406" xlink:href="#DejaVuSans-32"/>
    <use x="961.853516" xlink:href="#DejaVuSans-58"/>
   </g>
  </g>
  <g id="text_24">
   <!-- mean residual : -0.0022 m -->
   <g transform="translate(584.178125 298.637812)scale(0.14 -0.14)">
    <use xlink:href="#DejaVuSans-109"/>
    <use x="97.412109" xlink:href="#DejaVuSans-101"/>
    <use x="158.935547" xlink:href="#DejaVuSans-97"/>
    <use x="220.214844" xlink:href="#DejaVuSans-110"/>
    <use x="283.59375" xlink:href="#DejaVuSans-32"/>
    <use x="315.380859" xlink:href="#DejaVuSans-114"/>
    <use x="356.462891" xlink:href="#DejaVuSans-101"/>
    <use x="417.986328" xlink:href="#DejaVuSans-115"/>
    <use x="470.085938" xlink:href="#DejaVuSans-105"/>
    <use x="497.869141" xlink:href="#DejaVuSans-100"/>
    <use x="561.345703" xlink:href="#DejaVuSans-117"/>
    <use x="624.724609" xlink:href="#DejaVuSans-97"/>
    <use x="686.003906" xlink:href="#DejaVuSans-108"/>
    <use x="713.787109" xlink:href="#DejaVuSans-32"/>
    <use x="745.574219" xlink:href="#DejaVuSans-58"/>
    <use x="779.265625" xlink:href="#DejaVuSans-32"/>
    <use x="811.052734" xlink:href="#DejaVuSans-45"/>
    <use x="847.136719" xlink:href="#DejaVuSans-48"/>
    <use x="910.759766" xlink:href="#DejaVuSans-46"/>
    <use x="942.546875" xlink:href="#DejaVuSans-48"/>
    <use x="1006.169922" xlink:href="#DejaVuSans-48"/>
    <use x="1069.792969" xlink:href="#DejaVuSans-50"/>
    <use x="1133.416016" xlink:href="#DejaVuSans-50"/>
    <use x="1197.039062" xlink:href="#DejaVuSans-32"/>
    <use x="1228.826172" xlink:href="#DejaVuSans-109"/>
   </g>
  </g>
  <g id="text_25">
   <!-- 2 standard deviation : 0.055 m -->
   <g transform="translate(584.178125 320.237812)scale(0.14 -0.14)">
    <use xlink:href="#DejaVuSans-50"/>
    <use x="63.623047" xlink:href="#DejaVuSans-32"/>
    <use x="95.410156" xlink:href="#DejaVuSans-115"/>
    <use x="147.509766" xlink:href="#DejaVuSans-116"/>
    <use x="186.71875" xlink:href="#DejaVuSans-97"/>
    <use x="247.998047" xlink:href="#DejaVuSans-110"/>
    <use x="311.376953" xlink:href="#DejaVuSans-100"/>
    <use x="374.853516" xlink:href="#DejaVuSans-97"/>
    <use x="436.132812" xlink:href="#DejaVuSans-114"/>
    <use x="477.230469" xlink:href="#DejaVuSans-100"/>
    <use x="540.707031" xlink:href="#DejaVuSans-32"/>
    <use x="572.494141" xlink:href="#DejaVuSans-100"/>
    <use x="635.970703" xlink:href="#DejaVuSans-101"/>
    <use x="697.494141" xlink:href="#DejaVuSans-118"/>
    <use x="756.673828" xlink:href="#DejaVuSans-105"/>
    <use x="784.457031" xlink:href="#DejaVuSans-97"/>
    <use x="845.736328" xlink:href="#DejaVuSans-116"/>
    <use x="884.945312" xlink:href="#DejaVuSans-105"/>
    <use x="912.728516" xlink:href="#DejaVuSans-111"/>
    <use x="973.910156" xlink:href="#DejaVuSans-110"/>
    <use x="1037.289062" xlink:href="#DejaVuSans-32"/>
    <use x="1069.076172" xlink:href="#DejaVuSans-58"/>
    <use x="1102.767578" xlink:href="#DejaVuSans-32"/>
    <use x="1134.554688" xlink:href="#DejaVuSans-48"/>
    <use x="1198.177734" xlink:href="#DejaVuSans-46"/>
    <use x="1229.964844" xlink:href="#DejaVuSans-48"/>
    <use x="1293.587891" xlink:href="#DejaVuSans-53"/>
    <use x="1357.210938" xlink:href="#DejaVuSans-53"/>
    <use x="1420.833984" xlink:href="#DejaVuSans-32"/>
    <use x="1452.621094" xlink:href="#DejaVuSans-109"/>
   </g>
  </g>
  <g id="text_26">
   <!-- Root-mean-square : 0.028 m -->
   <defs>
    <path d="M 14.796875 27.296875 
Q 14.796875 17.390625 18.875 11.75 
Q 22.953125 6.109375 30.078125 6.109375 
Q 37.203125 6.109375 41.296875 11.75 
Q 45.40625 17.390625 45.40625 27.296875 
Q 45.40625 37.203125 41.296875 42.84375 
Q 37.203125 48.484375 30.078125 48.484375 
Q 22.953125 48.484375 18.875 42.84375 
Q 14.796875 37.203125 14.796875 27.296875 
z
M 45.40625 8.203125 
Q 42.578125 3.328125 38.25 0.953125 
Q 33.9375 -1.421875 27.875 -1.421875 
Q 17.96875 -1.421875 11.734375 6.484375 
Q 5.515625 14.40625 5.515625 27.296875 
Q 5.515625 40.1875 11.734375 48.09375 
Q 17.96875 56 27.875 56 
Q 33.9375 56 38.25 53.625 
Q 42.578125 51.265625 45.40625 46.390625 
L 45.40625 54.6875 
L 54.390625 54.6875 
L 54.390625 -20.796875 
L 45.40625 -20.796875 
z
" id="DejaVuSans-113"/>
   </defs>
   <g transform="translate(584.178125 341.837812)scale(0.14 -0.14)">
    <use xlink:href="#DejaVuSans-82"/>
    <use x="69.419922" xlink:href="#DejaVuSans-111"/>
    <use x="130.601562" xlink:href="#DejaVuSans-111"/>
    <use x="191.783203" xlink:href="#DejaVuSans-116"/>
    <use x="230.992188" xlink:href="#DejaVuSans-45"/>
    <use x="267.076172" xlink:href="#DejaVuSans-109"/>
    <use x="364.488281" xlink:href="#DejaVuSans-101"/>
    <use x="426.011719" xlink:href="#DejaVuSans-97"/>
    <use x="487.291016" xlink:href="#DejaVuSans-110"/>
    <use x="550.669922" xlink:href="#DejaVuSans-45"/>
    <use x="586.753906" xlink:href="#DejaVuSans-115"/>
    <use x="638.853516" xlink:href="#DejaVuSans-113"/>
    <use x="702.330078" xlink:href="#DejaVuSans-117"/>
    <use x="765.708984" xlink:href="#DejaVuSans-97"/>
    <use x="826.988281" xlink:href="#DejaVuSans-114"/>
    <use x="868.070312" xlink:href="#DejaVuSans-101"/>
    <use x="929.59375" xlink:href="#DejaVuSans-32"/>
    <use x="961.380859" xlink:href="#DejaVuSans-58"/>
    <use x="995.072266" xlink:href="#DejaVuSans-32"/>
    <use x="1026.859375" xlink:href="#DejaVuSans-48"/>
    <use x="1090.482422" xlink:href="#DejaVuSans-46"/>
    <use x="1122.269531" xlink:href="#DejaVuSans-48"/>
    <use x="1185.892578" xlink:href="#DejaVuSans-50"/>
    <use x="1249.515625" xlink:href="#DejaVuSans-56"/>
    <use x="1313.138672" xlink:href="#DejaVuSans-32"/>
    <use x="1344.925781" xlink:href="#DejaVuSans-109"/>
   </g>
  </g>
 </g>
 <defs>
  <clipPath id="p767e8b9774">
   <rect height="326.16" width="446.4" x="51.378125" y="69.677812"/>
  </clipPath>
 </defs>
</svg>
